G04 ================== begin FILE IDENTIFICATION RECORD ==================*
G04 Layout Name:  BU90004GWZ-E2EVK-101_BRD_REV00_2014-02-12.brd*
G04 Film Name:    BOTTOM*
G04 File Format:  Gerber RS274X*
G04 File Origin:  Cadence Allegro 16.3-S048*
G04 Origin Date:  Wed Feb 12 16:24:18 2014*
G04 *
G04 Layer:  VIA CLASS/BOTTOM*
G04 Layer:  PIN/BOTTOM*
G04 Layer:  ETCH/BOTTOM*
G04 Layer:  DRAWING FORMAT/BOTTOM*
G04 Layer:  BOARD GEOMETRY/OUTLINE*
G04 Layer:  BOARD GEOMETRY/LOGO_M*
G04 *
G04 Offset:    (0.000 0.000)*
G04 Mirror:    No*
G04 Mode:      Positive*
G04 Rotation:  0*
G04 FullContactRelief:  No*
G04 UndefLineWidth:     5.000*
G04 ================== end FILE IDENTIFICATION RECORD ====================*
%FSLAX55Y55*MOIN*%
%IR0*IPPOS*OFA0.00000B0.00000*MIA0B0*SFA1.00000B1.00000*%
%ADD10C,.25*%
%ADD13C,.04*%
%ADD14C,.06*%
%ADD11C,.024*%
%ADD12C,.093*%
%ADD15R,.06X.06*%
%ADD16C,.007098*%
%ADD17C,.02*%
%ADD18C,.015*%
%ADD19C,.005*%
%ADD21C,.109004*%
%ADD20C,.266004*%
%ADD22C,.056004*%
%ADD23R,.076004X.076004*%
G75*
%LPD*%
G75*
G36*
G01X-15000Y-15500D02*
Y228000D01*
X196500D01*
Y-15500D01*
X-15000D01*
G37*
%LPC*%
G75*
G36*
G01X83718Y74656D02*
G03X84003Y74654I143J140D01*
G01X87250Y77901D01*
Y89501D01*
X92050Y94301D01*
Y99122D01*
G02X94950I1450J1378D01*
G01Y93099D01*
X90150Y88299D01*
Y76699D01*
X84732Y71281D01*
X84720Y71223D01*
G02X83718Y74656I-3720J777D01*
G37*
G36*
G01X168296Y138800D02*
X103704D01*
X93700Y128796D01*
Y112204D01*
X94456Y111448D01*
X94508Y111435D01*
G02X92066Y108992I-509J-1935D01*
G01X92052Y109044D01*
X90300Y110796D01*
Y130204D01*
X102296Y142200D01*
X169704D01*
X179041Y132864D01*
G02X176636Y130459I2459J-4864D01*
G01X168296Y138800D01*
G37*
G36*
G01X86622Y103050D02*
X83101D01*
X51205Y71154D01*
X51192Y71100D01*
G02X50134Y74739I-3692J900D01*
G03X50694Y74745I277J288D01*
G01X81899Y105950D01*
X86622D01*
G02Y103050I1378J-1450D01*
G37*
G54D21*
X0Y88000D03*
G54D20*
Y0D03*
Y213000D03*
X181500Y0D03*
Y213000D03*
G54D22*
X25000Y101500D03*
Y89000D03*
X59000Y99000D03*
X99000Y96500D03*
X88500Y99000D03*
X125000Y129500D03*
X112000Y113500D03*
X145000Y109500D03*
X155000Y129500D03*
G54D23*
X81000Y82000D03*
X47500D03*
%LPD*%
G75*
G54D10*
X0Y0D03*
Y213000D03*
X181500Y0D03*
Y213000D03*
G54D11*
X-12500Y24500D03*
Y34500D03*
Y44500D03*
Y54500D03*
Y64500D03*
Y74000D03*
Y84500D03*
Y94500D03*
Y104000D03*
Y114500D03*
Y124500D03*
Y134500D03*
Y144500D03*
Y154500D03*
Y164500D03*
Y174500D03*
Y184500D03*
Y194500D03*
X5000Y14500D03*
Y24500D03*
X-5000D03*
X5000Y34500D03*
X-5000D03*
X5000Y44500D03*
X-5000D03*
X5000Y54500D03*
X-5000D03*
X5000Y64500D03*
X-5000D03*
X5000Y74000D03*
X-5000D03*
X6500Y116500D03*
X7500Y124500D03*
X5000Y134500D03*
X-7500Y124000D03*
X-5000Y134500D03*
X5000Y144500D03*
X-5000D03*
X5000Y154500D03*
X-5000D03*
X5000Y164500D03*
X-5000D03*
X5000Y174500D03*
X-5000D03*
Y184500D03*
X5000D03*
Y194500D03*
X-5000D03*
X15000Y4500D03*
Y-5500D03*
X25000Y-14000D03*
X15000D03*
Y14500D03*
Y24500D03*
Y34500D03*
Y44500D03*
X25000Y54500D03*
X15000D03*
X25000Y64500D03*
X15000D03*
Y74000D03*
Y116500D03*
X25000Y124500D03*
X15000D03*
Y134500D03*
X25000D03*
X15000Y144500D03*
X25000D03*
X15000Y154500D03*
X25000D03*
Y164500D03*
X15000D03*
Y174500D03*
Y184500D03*
Y194500D03*
X25000Y214500D03*
X15000Y204500D03*
Y214500D03*
Y224500D03*
X25000D03*
X45000Y-14000D03*
X35000D03*
Y54500D03*
Y74000D03*
Y64500D03*
Y116500D03*
X45000Y124500D03*
X35000D03*
Y134500D03*
X45000D03*
X35000Y144500D03*
X45000D03*
X35000Y154500D03*
X45000D03*
Y164500D03*
X35000D03*
Y214500D03*
X45000D03*
X35000Y224500D03*
X45000D03*
X65000Y-14000D03*
X55000D03*
X60000Y54500D03*
Y64500D03*
Y74000D03*
X55000Y116500D03*
X67000Y126000D03*
X55000Y124500D03*
Y134500D03*
X65000D03*
X55000Y144500D03*
X65000D03*
X55000Y154500D03*
X65000D03*
Y164500D03*
X55000D03*
X65000Y214500D03*
X55000D03*
Y224500D03*
X65000D03*
X85000Y4500D03*
Y-5500D03*
Y-14000D03*
X75000D03*
X85000Y14500D03*
Y34500D03*
Y24500D03*
X70000Y54500D03*
X85000Y44500D03*
X70000Y74000D03*
Y64500D03*
X74000Y118000D03*
Y107500D03*
X75000Y112000D03*
X80000D03*
X84500D03*
X84000Y118000D03*
X88000Y104500D03*
X74000Y123000D03*
X85000Y134500D03*
X75000D03*
X79000Y128000D03*
X84000D03*
X79000Y123000D03*
X84000D03*
X74000Y128000D03*
X85000Y144500D03*
X75000D03*
X85000Y154500D03*
X75000D03*
X85000Y164500D03*
X75000D03*
X85000Y194500D03*
X75000Y214500D03*
X85000D03*
Y204500D03*
X75000Y224500D03*
X85000D03*
X105000Y4500D03*
Y-5500D03*
Y-14000D03*
X95000Y4500D03*
Y-5500D03*
Y-14000D03*
X105000Y14500D03*
X95000D03*
X105000Y24500D03*
X95000Y34500D03*
Y24500D03*
Y54500D03*
X105000D03*
Y44500D03*
X95000D03*
Y74500D03*
Y64500D03*
X105000D03*
Y74500D03*
X95000Y84500D03*
X93500Y100500D03*
X95000Y113500D03*
Y118000D03*
X89000Y109000D03*
Y118000D03*
Y113500D03*
X94000Y109500D03*
X89000Y123000D03*
X100000D03*
Y129500D03*
X95000Y123000D03*
Y128000D03*
X105000Y134500D03*
X92500D03*
X89000Y128000D03*
X105000Y144500D03*
X95000D03*
X105000Y154500D03*
X95000D03*
X105000Y164500D03*
X95000D03*
X105000Y194500D03*
X95000D03*
X105000Y214500D03*
X95000D03*
X105000Y204500D03*
X95000D03*
Y224500D03*
X105000D03*
X125000Y4500D03*
X115000D03*
X125000Y-5500D03*
X115000D03*
X125000Y-14000D03*
X115000D03*
X125000Y14500D03*
X115000D03*
Y34500D03*
X125000D03*
X115000Y24500D03*
X125000D03*
Y54500D03*
X115000D03*
Y44500D03*
X125000D03*
Y64500D03*
X115000D03*
X125000Y74500D03*
X115000D03*
X125000Y94500D03*
Y84500D03*
X115000D03*
Y144500D03*
Y154500D03*
X125000D03*
Y164500D03*
X115000D03*
X125000Y194500D03*
X115000D03*
Y214500D03*
Y204500D03*
X125000Y214500D03*
Y204500D03*
X115000Y224500D03*
X125000D03*
X145000Y4500D03*
X135000D03*
X145000Y-5500D03*
X135000D03*
X145000Y-14000D03*
X135000D03*
X145000Y14500D03*
X135000D03*
Y34500D03*
X145000D03*
X135000Y24500D03*
X145000D03*
Y54500D03*
X135000D03*
Y44500D03*
X145000D03*
Y64500D03*
Y74500D03*
X135000D03*
Y84500D03*
Y94500D03*
X145000Y84500D03*
X135000Y144500D03*
X145000D03*
X135000Y154500D03*
X145000D03*
X135000Y164500D03*
X145000D03*
Y194500D03*
X135000D03*
Y214500D03*
X145000D03*
X135000Y204500D03*
X145000D03*
X135000Y224500D03*
X145000D03*
X165000Y4500D03*
Y-5500D03*
Y-14000D03*
X155000Y4500D03*
Y-5500D03*
Y-14000D03*
X165000Y14500D03*
X155000D03*
X165000Y34500D03*
Y24500D03*
X155000Y34500D03*
Y24500D03*
X165000Y54500D03*
X155000D03*
X165000Y44500D03*
X155000D03*
X165000Y64500D03*
X155000D03*
X165000Y74500D03*
X155000D03*
Y94500D03*
X165000Y84500D03*
X155000D03*
X165000Y94500D03*
Y144500D03*
X155000Y154500D03*
X165000D03*
X155000Y164500D03*
X165000D03*
Y174500D03*
Y184500D03*
Y194500D03*
X155000D03*
X165000Y204500D03*
X155000D03*
X165000Y214500D03*
X155000D03*
Y224500D03*
X165000D03*
X175000Y14500D03*
Y34500D03*
Y24500D03*
Y54500D03*
Y44500D03*
Y74500D03*
X172500Y84500D03*
X175000Y94500D03*
Y144500D03*
Y154500D03*
Y164500D03*
Y174500D03*
Y184500D03*
X182500Y194500D03*
X175000D03*
X195000Y14500D03*
X185000D03*
X195000Y24500D03*
Y34500D03*
X185000D03*
Y24500D03*
X195000Y44500D03*
Y54500D03*
X185000D03*
Y44500D03*
X195000Y64500D03*
X185000D03*
X195000Y74500D03*
X185000D03*
X195000Y84500D03*
X189500D03*
X195000Y94500D03*
X187500D03*
X195000Y104500D03*
Y114500D03*
Y124500D03*
Y134500D03*
X185000Y144500D03*
X195000D03*
X185000Y154500D03*
X195000D03*
X185000Y164500D03*
X195000D03*
X185000Y174500D03*
X195000D03*
Y184500D03*
X185000D03*
G54D12*
X0Y88000D03*
Y128000D03*
X181500Y88000D03*
Y128000D03*
G54D13*
X25000Y74000D03*
Y89000D03*
Y116500D03*
Y101500D03*
X45000Y116500D03*
X59000Y99000D03*
X88500D03*
X79000Y118000D03*
X105000Y34500D03*
Y84500D03*
X99000Y96500D03*
X117500Y94500D03*
X112000Y113500D03*
X125000Y129500D03*
Y144500D03*
X135000Y64500D03*
X145000Y94500D03*
Y109500D03*
X155000Y129500D03*
Y144500D03*
X175000Y64500D03*
G54D14*
X47500Y62000D03*
Y72000D03*
X81000Y62000D03*
Y72000D03*
G54D15*
X47500Y82000D03*
X81000D03*
G54D16*
G01X317040Y-75750D02*
Y-77400D01*
G01Y-74090D02*
Y-75750D01*
G01X315110D02*
X317040D01*
G01Y-74090D02*
X314770D01*
G01X314210Y-77400D02*
X315110Y-75750D01*
G01X314830D02*
X315110D01*
G01X314660Y-75730D02*
X314830Y-75750D01*
G01X314500Y-75680D02*
X314660Y-75730D01*
G01X314350Y-75610D02*
X314500Y-75680D01*
G01X314220Y-75500D02*
X314350Y-75610D01*
G01X314110Y-75370D02*
X314220Y-75500D01*
G01X314040Y-75220D02*
X314110Y-75370D01*
G01X313990Y-75060D02*
X314040Y-75220D01*
G01X314100Y-74450D02*
X314030Y-74580D01*
G01X314200Y-74320D02*
X314100Y-74450D01*
G01X314330Y-74220D02*
X314200Y-74320D01*
G01X314460Y-74150D02*
X314330Y-74220D01*
G01X314610Y-74110D02*
X314460Y-74150D01*
G01X314770Y-74090D02*
X314610Y-74110D01*
G01X313970Y-74890D02*
X313990Y-75060D01*
G01Y-74730D02*
X313970Y-74890D01*
G01X314030Y-74580D02*
X313990Y-74730D01*
G01X329560Y-57350D02*
X315280D01*
G01X328010Y-56650D02*
X316860D01*
G01X319300Y-58030D02*
X318540D01*
G01X318160Y-56440D02*
X319320Y-56380D01*
G01X314500Y-58040D02*
X318460D01*
G01X318540Y-58030D02*
X318030Y-58100D01*
G01X317550Y-58270D02*
X317330Y-58470D01*
G01X318030Y-58100D02*
X317550Y-58270D01*
G01X317000Y-56610D02*
X318160Y-56440D01*
G01X317040Y-59290D02*
Y-69600D01*
G01Y-61510D02*
X313970D01*
G01Y-60820D02*
X317040D01*
G01Y-60120D02*
X313970D01*
G01X313990Y-59430D02*
X317040D01*
G01X317070Y-58990D02*
X317040Y-59290D01*
G01X317160Y-58730D02*
X314130D01*
G01X317170Y-58710D02*
X317070Y-58990D01*
G01X317330Y-58470D02*
X317170Y-58710D01*
G01X316220Y-56830D02*
X317000Y-56610D01*
G01X315490Y-57190D02*
X316220Y-56830D01*
G01X314840Y-57670D02*
X315490Y-57190D01*
G01X314460Y-58080D02*
X314840Y-57670D01*
G01X314180Y-58560D02*
X314460Y-58080D01*
G01X314020Y-59090D02*
X314180Y-58560D01*
G01X313970Y-69600D02*
Y-59640D01*
G01D02*
X314020Y-59090D01*
G01X317040Y-69600D02*
X313970D01*
G01Y-69150D02*
X317040D01*
G01Y-68450D02*
X313970D01*
G01Y-67760D02*
X317040D01*
G01Y-67060D02*
X313970D01*
G01Y-66370D02*
X317040D01*
G01Y-65670D02*
X313970D01*
G01Y-64980D02*
X317040D01*
G01Y-64290D02*
X313970D01*
G01Y-63590D02*
X317040D01*
G01Y-62900D02*
X313970D01*
G01Y-62200D02*
X317040D01*
G01X337340Y-76380D02*
X337360Y-76160D01*
G01X337290Y-76580D02*
X337340Y-76380D01*
G01X337190Y-76780D02*
X337290Y-76580D01*
G01X337070Y-76960D02*
X337190Y-76780D01*
G01X336920Y-77110D02*
X337070Y-76960D01*
G01X337350Y-76160D02*
Y-74090D01*
G01X336740Y-77230D02*
X336920Y-77110D01*
G01X336540Y-77330D02*
X336740Y-77230D01*
G01X336340Y-77380D02*
X336540Y-77330D01*
G01X336120Y-77400D02*
X336340Y-77380D01*
G01X335600Y-77400D02*
X336120D01*
G01X335370Y-77380D02*
X335600Y-77400D01*
G01X335150Y-77320D02*
X335370Y-77380D01*
G01X334940Y-77220D02*
X335150Y-77320D01*
G01X334760Y-77090D02*
X334940Y-77220D01*
G01X334600Y-76930D02*
X334760Y-77090D01*
G01X334470Y-76740D02*
X334600Y-76930D01*
G01X334370Y-76540D02*
X334470Y-76740D01*
G01X334310Y-76320D02*
X334370Y-76540D01*
G01X334290Y-76090D02*
X334310Y-76320D01*
G01X334280Y-74090D02*
Y-76090D01*
G01X332140Y-76520D02*
X332160Y-76330D01*
G01X332100Y-76700D02*
X332140Y-76520D01*
G01X332020Y-76860D02*
X332100Y-76700D01*
G01X331910Y-77020D02*
X332020Y-76860D01*
G01X331780Y-77150D02*
X331910Y-77020D01*
G01X332160Y-76330D02*
Y-75130D01*
G01X332140Y-74950D02*
X332100Y-74770D01*
G01X332160Y-75130D02*
X332140Y-74950D01*
G01X331920Y-74460D02*
X331790Y-74330D01*
G01X332020Y-74610D02*
X331920Y-74460D01*
G01X332100Y-74770D02*
X332020Y-74610D01*
G01X331630Y-77260D02*
X331780Y-77150D01*
G01X331460Y-77340D02*
X331630Y-77260D01*
G01X331280Y-77380D02*
X331460Y-77340D01*
G01X331090Y-77400D02*
X331280Y-77380D01*
G01X331300Y-74110D02*
X331120Y-74090D01*
G01X331480Y-74150D02*
X331300Y-74110D01*
G01X331640Y-74230D02*
X331480Y-74150D01*
G01X331790Y-74330D02*
X331640Y-74230D01*
G01X329320Y-77400D02*
X331090D01*
G01X331120Y-74090D02*
X329320D01*
G01X321750Y-77260D02*
X321560Y-77340D01*
G01X321930Y-77150D02*
X321750Y-77260D01*
G01X322090Y-77020D02*
X321930Y-77150D01*
G01X322220Y-76860D02*
X322090Y-77020D01*
G01X322020Y-74390D02*
X322180Y-74550D01*
G01X321830Y-74260D02*
X322020Y-74390D01*
G01X321630Y-74170D02*
X321830Y-74260D01*
G01X327430Y-74090D02*
X326020D01*
G01D02*
Y-77400D01*
G01X324600Y-74090D02*
X326020D01*
G01X322330Y-76680D02*
X322220Y-76860D01*
G01X322410Y-76490D02*
X322330Y-76680D01*
G01X322450Y-76290D02*
X322410Y-76490D01*
G01X322470Y-76090D02*
X322450Y-76290D01*
G01X322470Y-75380D02*
Y-76090D01*
G01X322460Y-75160D02*
X322480Y-75380D01*
G01X322400Y-74940D02*
X322460Y-75160D01*
G01X322310Y-74730D02*
X322400Y-74940D01*
G01X322180Y-74550D02*
X322310Y-74730D01*
G01X321160Y-77400D02*
X320470D01*
G01X321360Y-77380D02*
X321160Y-77400D01*
G01X321560Y-77340D02*
X321360Y-77380D01*
G01X321410Y-74110D02*
X321630Y-74170D01*
G01X321190Y-74090D02*
X321410Y-74110D01*
G01X320450Y-74090D02*
X321190D01*
G01X320030Y-77320D02*
X319820Y-77230D01*
G01X320240Y-77380D02*
X320030Y-77320D01*
G01X320470Y-77400D02*
X320240Y-77380D01*
G01X320230Y-74110D02*
X320450Y-74090D01*
G01X320010Y-74170D02*
X320230Y-74110D01*
G01X319810Y-74260D02*
X320010Y-74170D01*
G01X319250Y-76540D02*
X319190Y-76330D01*
G01X319340Y-76750D02*
X319250Y-76540D01*
G01X319470Y-76940D02*
X319340Y-76750D01*
G01X319630Y-77100D02*
X319470Y-76940D01*
G01X319820Y-77230D02*
X319630Y-77100D01*
G01Y-74390D02*
X319810Y-74260D01*
G01X319470Y-74550D02*
X319630Y-74390D01*
G01X319340Y-74730D02*
X319470Y-74550D01*
G01X319250Y-74930D02*
X319340Y-74730D01*
G01X319190Y-75150D02*
X319250Y-74930D01*
G01X319190Y-76330D02*
X319170Y-76100D01*
G01D02*
Y-75370D01*
G01D02*
X319190Y-75150D01*
G01X336640Y-61820D02*
X336800Y-61940D01*
G01X336520Y-61650D02*
X336640Y-61820D01*
G01X336460Y-61510D02*
X333100D01*
G01X336440Y-61460D02*
X336520Y-61650D01*
G01X336410Y-61260D02*
X336440Y-61460D01*
G01X336410Y-56850D02*
Y-61260D01*
G01X333100Y-60820D02*
X336410D01*
G01X333100Y-59430D02*
X336410D01*
G01Y-60120D02*
X333100D01*
G01X336410Y-58730D02*
X333100D01*
G01Y-58040D02*
X336410D01*
G01Y-57350D02*
X333100D01*
G01Y-56850D02*
X336410D01*
G01X333100Y-69600D02*
Y-56850D01*
G01X329560D02*
Y-69600D01*
G01Y-61510D02*
X326490D01*
G01Y-60820D02*
X329560D01*
G01X326490Y-59430D02*
X329560D01*
G01Y-60120D02*
X326490D01*
G01X329560Y-58730D02*
X326470D01*
G01X325740Y-58040D02*
X329560D01*
G01X326620Y-56470D02*
X329560Y-56850D01*
G01X336410Y-69600D02*
X333100D01*
G01X329560D02*
X326490D01*
G01X346800Y-63590D02*
X333100D01*
G01Y-62900D02*
X346800D01*
G01Y-62200D02*
X333100D01*
G01X342720Y-63700D02*
X337240D01*
G01X337190Y-62040D02*
X342690D01*
G01X337240Y-63700D02*
X337030Y-63730D01*
G01X336990Y-62020D02*
X337190Y-62040D01*
G01X336410Y-64530D02*
Y-69600D01*
G01Y-69150D02*
X333100D01*
G01Y-68450D02*
X336410D01*
G01X333100Y-67060D02*
X336410D01*
G01Y-67760D02*
X333100D01*
G01X336410Y-66370D02*
X333100D01*
G01Y-65670D02*
X336410D01*
G01Y-64980D02*
X333100D01*
G01X336440Y-64310D02*
X336410Y-64530D01*
G01X333100Y-64290D02*
X336450D01*
G01X336520Y-64110D02*
X336440Y-64310D01*
G01X336650Y-63940D02*
X336520Y-64110D01*
G01X336820Y-63810D02*
X336650Y-63940D01*
G01X337030Y-63730D02*
X336820Y-63810D01*
G01X336800Y-61940D02*
X336990Y-62020D01*
G01X326490Y-69150D02*
X329560D01*
G01Y-68450D02*
X326490D01*
G01X329560Y-67060D02*
X326490D01*
G01Y-67760D02*
X329560D01*
G01X326490Y-66370D02*
X329560D01*
G01Y-65670D02*
X326490D01*
G01Y-64980D02*
X329560D01*
G01X326490Y-63590D02*
X329560D01*
G01Y-64290D02*
X326490D01*
G01X329560Y-62900D02*
X326490D01*
G01Y-62200D02*
X329560D01*
G01X326490Y-69600D02*
Y-58860D01*
G01X326380Y-58440D02*
X326250Y-58270D01*
G01X326460Y-58640D02*
X326380Y-58440D01*
G01X326490Y-58860D02*
X326460Y-58640D01*
G01X326070Y-58140D02*
X325880Y-58060D01*
G01X326250Y-58270D02*
X326070Y-58140D01*
G01X323650Y-56380D02*
X326620Y-56470D01*
G01X325660Y-58030D02*
X324220D01*
G01X325880Y-58060D02*
X325660Y-58030D01*
G01X319380Y-58040D02*
X324140D01*
G01X323530Y-58430D02*
X323440Y-58620D01*
G01X323650Y-58260D02*
X323530Y-58430D01*
G01X323820Y-58140D02*
X323650Y-58260D01*
G01X324010Y-58060D02*
X323820Y-58140D01*
G01X324220Y-58030D02*
X324010Y-58060D01*
G01X319320Y-56380D02*
X323650D01*
G01X323420Y-58830D02*
Y-69600D01*
G01Y-61510D02*
X320110D01*
G01Y-60820D02*
X323420D01*
G01Y-60120D02*
X320110D01*
G01Y-59430D02*
X323420D01*
G01X323430Y-58730D02*
X320100D01*
G01X323440Y-58620D02*
X323420Y-58830D01*
G01X320110Y-69600D02*
Y-58840D01*
G01X320080Y-58630D02*
X320000Y-58430D01*
G01X320110Y-58840D02*
X320080Y-58630D01*
G01X320000Y-58430D02*
X319870Y-58270D01*
G01X319510Y-58060D02*
X319300Y-58030D01*
G01X319700Y-58140D02*
X319510Y-58060D01*
G01X319870Y-58270D02*
X319700Y-58140D01*
G01X323420Y-69600D02*
X320110D01*
G01Y-69150D02*
X323420D01*
G01Y-68450D02*
X320110D01*
G01Y-67760D02*
X323420D01*
G01Y-67060D02*
X320110D01*
G01Y-66370D02*
X323420D01*
G01Y-65670D02*
X320110D01*
G01Y-64980D02*
X323420D01*
G01Y-64290D02*
X320110D01*
G01Y-63590D02*
X323420D01*
G01Y-62900D02*
X320110D01*
G01Y-62200D02*
X323420D01*
G01X356250Y-77400D02*
X358000D01*
G01Y-74090D02*
X356250D01*
G01X353490Y-77230D02*
X353280Y-77320D01*
G01X353670Y-77100D02*
X353490Y-77230D01*
G01X353830Y-76940D02*
X353670Y-77100D01*
G01X353960Y-76750D02*
X353830Y-76940D01*
G01X354050Y-76550D02*
X353960Y-76750D01*
G01X354110Y-76330D02*
X354050Y-76550D01*
G01X354130Y-76110D02*
X354110Y-76330D01*
G01X354130Y-75360D02*
Y-76110D01*
G01X354110Y-75140D02*
X354130Y-75360D01*
G01X354050Y-74930D02*
X354110Y-75140D01*
G01X353960Y-74720D02*
X354050Y-74930D01*
G01X353830Y-74540D02*
X353960Y-74720D01*
G01X353680Y-74390D02*
X353830Y-74540D01*
G01X353490Y-74260D02*
X353680Y-74390D01*
G01X353290Y-74170D02*
X353490Y-74260D01*
G01X353080Y-74110D02*
X353290Y-74170D01*
G01X352840Y-77400D02*
X352140D01*
G01X353060Y-77380D02*
X352840Y-77400D01*
G01X353280Y-77320D02*
X353060Y-77380D01*
G01X352860Y-74090D02*
X353080Y-74110D01*
G01X352120Y-74090D02*
X352860D01*
G01X351540Y-77260D02*
X351360Y-77150D01*
G01X351730Y-77340D02*
X351540Y-77260D01*
G01X351930Y-77380D02*
X351730Y-77340D01*
G01X352140Y-77400D02*
X351930Y-77380D01*
G01X351890Y-74110D02*
X352120Y-74090D01*
G01X351680Y-74170D02*
X351890Y-74110D01*
G01X351470Y-74260D02*
X351680Y-74170D01*
G01X350880Y-76490D02*
X350840Y-76290D01*
G01X350960Y-76680D02*
X350880Y-76490D01*
G01X351070Y-76860D02*
X350960Y-76680D01*
G01X351210Y-77010D02*
X351070Y-76860D01*
G01X351360Y-77150D02*
X351210Y-77010D01*
G01X350840Y-76290D02*
X350820Y-76080D01*
G01D02*
Y-75390D01*
G01X350990Y-74740D02*
X351120Y-74550D01*
G01X350900Y-74950D02*
X350990Y-74740D01*
G01X350840Y-75160D02*
X350900Y-74950D01*
G01X350820Y-75390D02*
X350840Y-75160D01*
G01X351280Y-74390D02*
X351470Y-74260D01*
G01X351120Y-74550D02*
X351280Y-74390D01*
G01X348460Y-74090D02*
Y-77400D01*
G01X347980Y-74090D02*
X348460D01*
G01X345700Y-77400D02*
X347980Y-74090D01*
G01X345150Y-77400D02*
X345700D01*
G01X345150Y-74090D02*
Y-77400D01*
G01X342790D02*
Y-74090D01*
G01X341030Y-77400D02*
X342790D01*
G01Y-74090D02*
X341010D01*
G01X340830Y-77380D02*
X341030Y-77400D01*
G01X340630Y-77340D02*
X340830Y-77380D01*
G01X340440Y-77260D02*
X340630Y-77340D01*
G01X340260Y-77150D02*
X340440Y-77260D01*
G01X340570Y-74170D02*
X340360Y-74260D01*
G01X340790Y-74110D02*
X340570Y-74170D01*
G01X341010Y-74090D02*
X340790Y-74110D01*
G01X340100Y-77020D02*
X340260Y-77150D01*
G01X339970Y-76860D02*
X340100Y-77020D01*
G01X339860Y-76680D02*
X339970Y-76860D01*
G01X339780Y-76490D02*
X339860Y-76680D01*
G01X339740Y-76290D02*
X339780Y-76490D01*
G01X339720Y-76090D02*
X339740Y-76290D01*
G01X339720Y-75380D02*
Y-76090D01*
G01X339740Y-75160D02*
X339720Y-75380D01*
G01X339800Y-74940D02*
X339740Y-75160D01*
G01X339890Y-74730D02*
X339800Y-74940D01*
G01X340020Y-74550D02*
X339890Y-74730D01*
G01X340180Y-74390D02*
X340020Y-74550D01*
G01X340360Y-74260D02*
X340180Y-74390D01*
G01X361590Y-57350D02*
X351710D01*
G01X353280Y-56650D02*
X360230D01*
G01X355230Y-56380D02*
X358340D01*
G01X357350Y-57790D02*
X355900D01*
G01X355360Y-57820D02*
X354840Y-57950D01*
G01X355900Y-57790D02*
X355360Y-57820D01*
G01X354370Y-56410D02*
X355230Y-56380D01*
G01X350870Y-58040D02*
X354650D01*
G01X354360Y-58180D02*
X353930Y-58500D01*
G01X354840Y-57950D02*
X354360Y-58180D01*
G01X353520Y-56570D02*
X354370Y-56410D01*
G01X358020Y-69600D02*
X355270D01*
G01D02*
X354360Y-69570D01*
G01D02*
X353460Y-69430D01*
G01X362070Y-68450D02*
X351380D01*
G01X360810Y-69150D02*
X352540D01*
G01X355900Y-68190D02*
X357510D01*
G01X355300Y-68150D02*
X355900Y-68190D01*
G01X354730Y-67990D02*
X355300Y-68150D01*
G01X354200Y-67730D02*
X354730Y-67990D01*
G01X353730Y-67360D02*
X354200Y-67730D01*
G01X353680Y-58730D02*
X350400D01*
G01X353360Y-59170D02*
X353220Y-59590D01*
G01X353600Y-58800D02*
X353360Y-59170D01*
G01X353930Y-58500D02*
X353600Y-58800D01*
G01X352710Y-56850D02*
X353520Y-56570D01*
G01X353180Y-60040D02*
Y-65710D01*
G01Y-61510D02*
X350110D01*
G01Y-60820D02*
X353180D01*
G01X350160Y-59430D02*
X353270D01*
G01X353180Y-60120D02*
X350110D01*
G01X353220Y-59590D02*
X353180Y-60040D01*
G01X352080Y-57120D02*
X352710Y-56850D01*
G01X351500Y-57470D02*
X352080Y-57120D01*
G01X350980Y-57910D02*
X351500Y-57470D01*
G01X350600Y-58360D02*
X350980Y-57910D01*
G01X350110Y-66180D02*
Y-60040D01*
G01X350160Y-59450D02*
X350320Y-58880D01*
G01X350110Y-60040D02*
X350160Y-59450D01*
G01X350320Y-58880D02*
X350600Y-58360D01*
G01X346800Y-56850D02*
Y-69600D01*
G01Y-61510D02*
X343440D01*
G01X343500Y-60820D02*
X346800D01*
G01Y-60120D02*
X343500D01*
G01Y-59430D02*
X346800D01*
G01Y-58730D02*
X343500D01*
G01Y-58040D02*
X346800D01*
G01X343500Y-56850D02*
X346800D01*
G01Y-57350D02*
X343500D01*
G01Y-61240D02*
Y-56850D01*
G01X343470Y-61450D02*
X343500Y-61240D01*
G01X343390Y-61640D02*
X343470Y-61450D01*
G01X343260Y-61810D02*
X343390Y-61640D01*
G01X343090Y-61940D02*
X343260Y-61810D01*
G01X350670Y-67760D02*
X354260D01*
G01X353460Y-69430D02*
X352590Y-69170D01*
G01X353560Y-67060D02*
X350280D01*
G01X353430Y-66850D02*
X353730Y-67360D01*
G01X353240Y-66290D02*
X353430Y-66850D01*
G01X352590Y-69170D02*
X352010Y-68900D01*
G01X350130Y-66370D02*
X353270D01*
G01X353180Y-65710D02*
X353240Y-66290D01*
G01X353180Y-65670D02*
X350110D01*
G01Y-64980D02*
X353180D01*
G01X350110Y-63590D02*
X353180D01*
G01Y-64290D02*
X350110D01*
G01X353180Y-62900D02*
X350110D01*
G01Y-62200D02*
X353180D01*
G01X352010Y-68900D02*
X351480Y-68550D01*
G01X351020Y-68110D02*
X350630Y-67720D01*
G01X351480Y-68550D02*
X351020Y-68110D01*
G01X350630Y-67720D02*
X350340Y-67250D01*
G01D02*
X350160Y-66730D01*
G01D02*
X350110Y-66180D01*
G01X346800Y-69600D02*
X343500D01*
G01X346800Y-69150D02*
X343500D01*
G01Y-68450D02*
X346800D01*
G01Y-67760D02*
X343500D01*
G01Y-67060D02*
X346800D01*
G01Y-66370D02*
X343500D01*
G01Y-65670D02*
X346800D01*
G01Y-64980D02*
X343500D01*
G01X343470Y-64290D02*
X346800D01*
G01X343500Y-69600D02*
Y-64480D01*
G01D02*
X343470Y-64280D01*
G01X343270Y-63930D02*
X343110Y-63800D01*
G01X343390Y-64090D02*
X343270Y-63930D01*
G01X343470Y-64280D02*
X343390Y-64090D01*
G01X343110Y-63800D02*
X342920Y-63720D01*
G01X342900Y-62020D02*
X343090Y-61940D01*
G01X342920Y-63720D02*
X342720Y-63700D01*
G01X342690Y-62040D02*
X342900Y-62020D01*
G01X372430Y-77400D02*
X372610Y-77380D01*
G01X370660Y-77400D02*
X372430D01*
G01X372470Y-74090D02*
X372670Y-74110D01*
G01X370660Y-74090D02*
X372470D01*
G01X376480Y-77400D02*
X378930D01*
G01X375620Y-74090D02*
X378170D01*
G01X378040Y-75750D02*
X376420D01*
G01X376310Y-77380D02*
X376480Y-77400D01*
G01X376420Y-75740D02*
X376260Y-75760D01*
G01X376150Y-77330D02*
X376310Y-77380D01*
G01X376000Y-77260D02*
X376150Y-77330D01*
G01X375870Y-77150D02*
X376000Y-77260D01*
G01X375760Y-77020D02*
X375870Y-77150D01*
G01X375690Y-76870D02*
X375760Y-77020D01*
G01X375640Y-76710D02*
X375690Y-76870D01*
G01X375620Y-76540D02*
X375640Y-76710D01*
G01Y-76380D02*
X375620Y-76540D01*
G01X375680Y-76230D02*
X375640Y-76380D01*
G01X375750Y-76100D02*
X375680Y-76230D01*
G01X375850Y-75970D02*
X375750Y-76100D01*
G01X375980Y-75870D02*
X375850Y-75970D01*
G01X376110Y-75800D02*
X375980Y-75870D01*
G01X376260Y-75760D02*
X376110Y-75800D01*
G01X373470Y-76520D02*
X373490Y-76340D01*
G01X373430Y-76700D02*
X373470Y-76520D01*
G01X373350Y-76870D02*
X373430Y-76700D01*
G01X373240Y-77020D02*
X373350Y-76870D01*
G01X373110Y-77150D02*
X373240Y-77020D01*
G01X372960Y-77260D02*
X373110Y-77150D01*
G01X372790Y-77340D02*
X372960Y-77260D01*
G01X373500Y-75110D02*
Y-75750D01*
G01D02*
X370660D01*
G01X373500Y-76340D02*
Y-75750D01*
G01X373470Y-74910D02*
X373490Y-75110D01*
G01X373410Y-74720D02*
X373470Y-74910D01*
G01X373320Y-74540D02*
X373410Y-74720D01*
G01X373190Y-74390D02*
X373320Y-74540D01*
G01X373040Y-74260D02*
X373190Y-74390D01*
G01X372860Y-74170D02*
X373040Y-74260D01*
G01X372610Y-77380D02*
X372790Y-77340D01*
G01X372670Y-74110D02*
X372860Y-74170D01*
G01X368300Y-74090D02*
Y-77400D01*
G01X367750Y-74090D02*
X368300D01*
G01X366210Y-77400D02*
X367750Y-74090D01*
G01X364800D02*
X366210Y-77400D01*
G01X364280Y-74090D02*
X364800D01*
G01X364280Y-77400D02*
Y-74090D01*
G01X361690D02*
Y-77400D01*
G01X359070Y-76500D02*
X359090Y-76310D01*
G01X359020Y-76680D02*
X359070Y-76500D01*
G01X358940Y-76850D02*
X359020Y-76680D01*
G01X358830Y-77010D02*
X358940Y-76850D01*
G01X358700Y-77140D02*
X358830Y-77010D01*
G01X358550Y-77250D02*
X358700Y-77140D01*
G01X358370Y-77330D02*
X358550Y-77250D01*
G01X359090Y-76310D02*
Y-75180D01*
G01X358910Y-74570D02*
X358770Y-74410D01*
G01X359010Y-74760D02*
X358910Y-74570D01*
G01X359070Y-74970D02*
X359010Y-74760D01*
G01X359090Y-75180D02*
X359070Y-74970D01*
G01X358610Y-74270D02*
X358420Y-74170D01*
G01X358770Y-74410D02*
X358610Y-74270D01*
G01X358420Y-74170D02*
X358210Y-74110D01*
G01X358190Y-77380D02*
X358370Y-77330D01*
G01X358000Y-77400D02*
X358190Y-77380D01*
G01X358210Y-74110D02*
X358000Y-74090D01*
G01X369050Y-69600D02*
X373500Y-64410D01*
G01X369840Y-64720D02*
X365390Y-69600D01*
G01X378930Y-61510D02*
X375620D01*
G01Y-60820D02*
X378930D01*
G01X375620Y-59430D02*
X378930D01*
G01Y-60120D02*
X375620D01*
G01X378930Y-58730D02*
X375620D01*
G01X375410Y-58040D02*
X378930D01*
G01Y-57350D02*
X367310D01*
G01X377590Y-56650D02*
X369020D01*
G01X376690Y-56520D02*
X374440Y-56380D01*
G01X375620Y-58570D02*
Y-69600D01*
G01X375600Y-58370D02*
X375620Y-58570D01*
G01X375520Y-58180D02*
X375600Y-58370D01*
G01X375400Y-58020D02*
X375520Y-58180D01*
G01X375230Y-57900D02*
X375400Y-58020D01*
G01X375050Y-57820D02*
X375230Y-57900D01*
G01X374850Y-57790D02*
X375050Y-57820D01*
G01X372000Y-57790D02*
X374850D01*
G01X374440Y-56380D02*
X371410D01*
G01X371310Y-57820D02*
X372000Y-57790D01*
G01X370630Y-57980D02*
X371310Y-57820D01*
G01X371410Y-56380D02*
X369740Y-56500D01*
G01X366640Y-58040D02*
X370500D01*
G01X369990Y-58270D02*
X370630Y-57980D01*
G01X369600Y-62160D02*
X369410Y-61760D01*
G01X369580Y-58730D02*
X366270D01*
G01X369680Y-58580D02*
X369990Y-58270D01*
G01X369450Y-58950D02*
X369680Y-58580D01*
G01X369740Y-56500D02*
X368100Y-56850D01*
G01X369340Y-61510D02*
X366180D01*
G01X369290Y-61340D02*
X369240Y-60900D01*
G01X369410Y-61760D02*
X369290Y-61340D01*
G01X366170Y-60820D02*
X369240D01*
G01Y-60900D02*
Y-59800D01*
G01Y-60120D02*
X366170D01*
G01Y-59430D02*
X369290D01*
G01X369300Y-59360D02*
X369450Y-58950D01*
G01X369240Y-59800D02*
X369300Y-59360D01*
G01X368100Y-56850D02*
X367550Y-57150D01*
G01X367060Y-57550D02*
X366650Y-58030D01*
G01X367550Y-57150D02*
X367060Y-57550D01*
G01X366170Y-61450D02*
X366210Y-61930D01*
G01X366170Y-59450D02*
Y-61450D01*
G01X366190Y-59070D02*
X366170Y-59450D01*
G01X366280Y-58690D02*
X366190Y-59070D01*
G01X366430Y-58340D02*
X366280Y-58690D01*
G01X366650Y-58030D02*
X366430Y-58340D01*
G01X363100Y-59760D02*
Y-62520D01*
G01Y-61510D02*
X360030D01*
G01Y-60820D02*
X363100D01*
G01Y-60120D02*
X360030D01*
G01X359920Y-59430D02*
X363070D01*
G01X363060Y-59280D02*
X363100Y-59760D01*
G01X362880Y-58730D02*
X359500D01*
G01X362700Y-58400D02*
X362930Y-58820D01*
G01D02*
X363060Y-59280D01*
G01X362410Y-58020D02*
X362700Y-58400D01*
G01X358570Y-58040D02*
X362420D01*
G01X362040Y-57710D02*
X362410Y-58020D01*
G01X361410Y-57200D02*
X362040Y-57710D01*
G01X360700Y-56810D02*
X361410Y-57200D01*
G01X359940Y-56550D02*
X360700Y-56810D01*
G01X360030Y-62520D02*
Y-60080D01*
G01X359870Y-59280D02*
X359670Y-58930D01*
G01X359990Y-59670D02*
X359870Y-59280D01*
G01X360030Y-60080D02*
X359990Y-59670D01*
G01X359670Y-58930D02*
X359400Y-58620D01*
G01D02*
X358970Y-58250D01*
G01X359140Y-56410D02*
X359940Y-56550D01*
G01X358470Y-57980D02*
X357920Y-57830D01*
G01X358970Y-58250D02*
X358470Y-57980D01*
G01X358340Y-56380D02*
X359140Y-56410D01*
G01X357920Y-57830D02*
X357350Y-57790D01*
G01X375620Y-69600D02*
X378930D01*
G01X372410Y-65670D02*
X368970D01*
G01X375620Y-69150D02*
X378930D01*
G01Y-68450D02*
X375620D01*
G01X378930Y-67060D02*
X375620D01*
G01Y-67760D02*
X378930D01*
G01X375620Y-66370D02*
X378930D01*
G01Y-65670D02*
X375620D01*
G01Y-64980D02*
X378930D01*
G01X375620Y-63590D02*
X378930D01*
G01Y-64290D02*
X375620D01*
G01X378930Y-62900D02*
X375620D01*
G01Y-62200D02*
X378930D01*
G01X369600Y-64980D02*
X373010D01*
G01X373500Y-64290D02*
X369840D01*
G01X367360Y-63590D02*
X373500D01*
G01Y-64410D02*
Y-62990D01*
G01D02*
X371720D01*
G01X365390Y-69600D02*
X369050D01*
G01X360070Y-69370D02*
X359050Y-69540D01*
G01D02*
X358020Y-69600D01*
G01X368330Y-66370D02*
X371820D01*
G01X371720Y-62990D02*
X371140Y-62950D01*
G01X367070Y-67760D02*
X370630D01*
G01X371220Y-67060D02*
X367700D01*
G01X370950Y-62900D02*
X366610D01*
G01X370580Y-62800D02*
X370060Y-62530D01*
G01X371140Y-62950D02*
X370580Y-62800D01*
G01X370030Y-68450D02*
X366440D01*
G01X369840Y-64210D02*
Y-64720D01*
G01X369140Y-64200D02*
X369840Y-64210D01*
G01X366280Y-62200D02*
X369650D01*
G01X370060Y-62530D02*
X369600Y-62160D01*
G01X365800Y-69150D02*
X369440D01*
G01X368460Y-64080D02*
X369140Y-64200D01*
G01X367800Y-63840D02*
X368460Y-64080D01*
G01X367200Y-63500D02*
X367800Y-63840D01*
G01X366840Y-63190D02*
X367200Y-63500D01*
G01X366550Y-62810D02*
X366840Y-63190D01*
G01X366330Y-62390D02*
X366550Y-62810D01*
G01X366210Y-61930D02*
X366330Y-62390D01*
G01X363030Y-67060D02*
X359610D01*
G01X362700Y-67840D02*
X362390Y-68210D01*
G01X362930Y-67410D02*
X362700Y-67840D01*
G01X363070Y-66940D02*
X362930Y-67410D01*
G01X359940Y-66370D02*
X363100D01*
G01Y-66450D02*
X363070Y-66940D01*
G01X363100Y-62520D02*
Y-66450D01*
G01Y-65670D02*
X360030D01*
G01Y-64980D02*
X363100D01*
G01Y-64290D02*
X360030D01*
G01Y-63590D02*
X363100D01*
G01Y-62900D02*
X360030D01*
G01Y-62200D02*
X363100D01*
G01X360030Y-62520D02*
X363100D01*
G01D02*
X360030D01*
G01X362000Y-68500D02*
X361400Y-68880D01*
G01X362390Y-68210D02*
X362000Y-68500D01*
G01X358870Y-67760D02*
X362750D01*
G01X361400Y-68880D02*
X360750Y-69170D01*
G01D02*
X360070Y-69370D01*
G01X359590Y-67090D02*
X359850Y-66670D01*
G01X359240Y-67440D02*
X359590Y-67090D01*
G01X358880Y-67760D02*
X359240Y-67440D01*
G01X360000Y-66200D02*
X360030Y-65710D01*
G01X359850Y-66670D02*
X360000Y-66200D01*
G01X360030Y-65710D02*
Y-62520D01*
G01X357990Y-68140D02*
X358460Y-67990D01*
G01D02*
X358880Y-67760D01*
G01X357510Y-68190D02*
X357990Y-68140D01*
G01X378860Y-75190D02*
X378780Y-75340D01*
G01X378910Y-74680D02*
X378930Y-74850D01*
G01X378910Y-75020D02*
X378860Y-75190D01*
G01X378930Y-74850D02*
X378910Y-75020D01*
G01X378850Y-74520D02*
X378910Y-74680D01*
G01X378760Y-74380D02*
X378850Y-74520D01*
G01X378210Y-75720D02*
X378040Y-75740D01*
G01X378380Y-75670D02*
X378210Y-75720D01*
G01X378530Y-75590D02*
X378380Y-75670D01*
G01X378670Y-75480D02*
X378530Y-75590D01*
G01X378780Y-75340D02*
X378670Y-75480D01*
G01X378640Y-74260D02*
X378760Y-74380D01*
G01X378500Y-74170D02*
X378640Y-74260D01*
G01X378340Y-74110D02*
X378500Y-74170D01*
G01X378170Y-74090D02*
X378340Y-74110D01*
G01X378930Y-56850D02*
X376690Y-56520D01*
G01X378930Y-69600D02*
Y-56850D01*
G54D17*
G01X181500Y128000D02*
X169000Y140500D01*
X103000D01*
X92000Y129500D01*
Y111500D01*
X94000Y109500D01*
G54D18*
G01X47500Y72000D02*
X50000D01*
X82500Y104500D01*
X88000D01*
G01X81000Y72000D02*
X83400D01*
X88700Y77300D01*
Y88900D01*
X93500Y93700D01*
Y100500D01*
G54D19*
G01X-84373Y-92500D02*
Y-88500D01*
X-85500Y-91833D01*
X-86627Y-88500D01*
Y-92500D01*
G01X-87817D02*
X-88900Y-88500D01*
X-89983Y-92500D01*
G01X-89593Y-91100D02*
X-88207D01*
G01X-93253Y-88833D02*
X-92993Y-88633D01*
X-92690Y-88500D01*
X-92343D01*
X-91953Y-88700D01*
X-91650Y-89033D01*
X-91433Y-89433D01*
X-91260Y-90100D01*
X-91217Y-90700D01*
X-91303Y-91300D01*
X-91433Y-91700D01*
X-91693Y-92100D01*
X-91997Y-92367D01*
X-92300Y-92500D01*
X-92603D01*
X-92907Y-92367D01*
X-93167Y-92167D01*
X-93383Y-91900D01*
G01X-94790Y-92500D02*
Y-88500D01*
G01X-96610D02*
Y-92500D01*
G01Y-90500D02*
X-94790D01*
G01X-101677Y-92500D02*
Y-88500D01*
X-103323D01*
G01X-102717Y-90433D02*
X-101677D01*
G01X-105380Y-88500D02*
X-106420D01*
G01X-105900D02*
Y-92500D01*
G01X-105380D02*
X-106420D01*
G01X-108303D02*
Y-88500D01*
X-110297Y-92500D01*
Y-88500D01*
G01X-112180D02*
X-113220D01*
G01X-112700D02*
Y-92500D01*
G01X-112180D02*
X-113220D01*
G01X-115190Y-91967D02*
X-115537Y-92300D01*
X-115927Y-92500D01*
X-116273D01*
X-116620Y-92300D01*
X-116880Y-91967D01*
X-117010Y-91500D01*
X-116923Y-91033D01*
X-116707Y-90633D01*
X-116317Y-90367D01*
X-115797Y-90233D01*
X-115493Y-89967D01*
X-115363Y-89500D01*
X-115450Y-89033D01*
X-115667Y-88700D01*
X-115970Y-88500D01*
X-116273D01*
X-116577Y-88633D01*
X-116837Y-88967D01*
G01X-118590Y-92500D02*
Y-88500D01*
G01X-120410D02*
Y-92500D01*
G01Y-90500D02*
X-118590D01*
G01X420500Y-104500D02*
Y-29500D01*
X-124500D01*
Y-104500D01*
X420500D01*
G01X-103500Y-93500D02*
X-106500D01*
G01X-103347Y-85700D02*
X-103607Y-86167D01*
X-103953Y-86433D01*
X-104343Y-86500D01*
X-104690Y-86433D01*
X-105037Y-86100D01*
X-105253Y-85700D01*
X-105297Y-85300D01*
X-105210Y-84833D01*
X-104907Y-84500D01*
X-104603Y-84367D01*
X-104213D01*
G01X-104603D02*
X-104863Y-84167D01*
X-105080Y-83833D01*
X-105167Y-83433D01*
X-105080Y-83033D01*
X-104863Y-82700D01*
X-104473Y-82500D01*
X-104083Y-82567D01*
X-103693Y-82833D01*
G01X-107700Y-82500D02*
X-107353Y-82633D01*
X-107093Y-82967D01*
X-106920Y-83367D01*
X-106790Y-83900D01*
X-106747Y-84500D01*
X-106790Y-85100D01*
X-106920Y-85633D01*
X-107093Y-86033D01*
X-107353Y-86367D01*
X-107700Y-86500D01*
X-108047Y-86367D01*
X-108307Y-86033D01*
X-108480Y-85633D01*
X-108610Y-85100D01*
X-108653Y-84500D01*
X-108610Y-83900D01*
X-108480Y-83367D01*
X-108307Y-82967D01*
X-108047Y-82633D01*
X-107700Y-82500D01*
G01X-91617Y-80500D02*
X-92700Y-76500D01*
X-93783Y-80500D01*
G01X-93393Y-79100D02*
X-92007D01*
G01X-95103Y-80500D02*
Y-76500D01*
X-97097Y-80500D01*
Y-76500D01*
G01X-99760Y-78500D02*
X-100627D01*
Y-79700D01*
X-100367Y-80100D01*
X-100063Y-80367D01*
X-99630Y-80500D01*
X-99197Y-80367D01*
X-98893Y-80100D01*
X-98633Y-79700D01*
X-98460Y-79233D01*
X-98373Y-78700D01*
Y-78233D01*
X-98460Y-77833D01*
X-98633Y-77367D01*
X-98893Y-76967D01*
X-99153Y-76700D01*
X-99500Y-76500D01*
X-99803D01*
X-100150Y-76633D01*
X-100410Y-76900D01*
G01X-102033Y-76500D02*
Y-80500D01*
X-103767D01*
G01X-107167D02*
X-105433D01*
Y-76500D01*
X-107167D01*
G01X-106473Y-78433D02*
X-105433D01*
G01X-48790Y-48967D02*
X-49137Y-49300D01*
X-49527Y-49500D01*
X-49873D01*
X-50220Y-49300D01*
X-50480Y-48967D01*
X-50610Y-48500D01*
X-50523Y-48033D01*
X-50307Y-47633D01*
X-49917Y-47367D01*
X-49397Y-47233D01*
X-49093Y-46967D01*
X-48963Y-46500D01*
X-49050Y-46033D01*
X-49267Y-45700D01*
X-49570Y-45500D01*
X-49873D01*
X-50177Y-45633D01*
X-50437Y-45967D01*
G01X-52233Y-49500D02*
Y-45500D01*
X-53273D01*
X-53620Y-45700D01*
X-53880Y-46167D01*
X-53967Y-46700D01*
X-53880Y-47233D01*
X-53663Y-47633D01*
X-53273Y-47833D01*
X-52233D01*
G01X-57367Y-49500D02*
X-55633D01*
Y-45500D01*
X-57367D01*
G01X-56673Y-47433D02*
X-55633D01*
G01X-60853Y-45833D02*
X-60593Y-45633D01*
X-60290Y-45500D01*
X-59943D01*
X-59553Y-45700D01*
X-59250Y-46033D01*
X-59033Y-46433D01*
X-58860Y-47100D01*
X-58817Y-47700D01*
X-58903Y-48300D01*
X-59033Y-48700D01*
X-59293Y-49100D01*
X-59597Y-49367D01*
X-59900Y-49500D01*
X-60203D01*
X-60507Y-49367D01*
X-60767Y-49167D01*
X-60983Y-48900D01*
G01X-62780Y-45500D02*
X-63820D01*
G01X-63300D02*
Y-49500D01*
G01X-62780D02*
X-63820D01*
G01X-65877D02*
Y-45500D01*
X-67523D01*
G01X-66917Y-47433D02*
X-65877D01*
G01X-69580Y-45500D02*
X-70620D01*
G01X-70100D02*
Y-49500D01*
G01X-69580D02*
X-70620D01*
G01X-74367D02*
X-72633D01*
Y-45500D01*
X-74367D01*
G01X-73673Y-47433D02*
X-72633D01*
G01X-75947Y-49500D02*
Y-45500D01*
X-76813D01*
X-77160Y-45700D01*
X-77420Y-45967D01*
X-77637Y-46367D01*
X-77810Y-46833D01*
X-77853Y-47500D01*
X-77810Y-48167D01*
X-77637Y-48633D01*
X-77420Y-49033D01*
X-77160Y-49300D01*
X-76813Y-49500D01*
X-75947D01*
G01X-82747D02*
Y-45500D01*
X-83613D01*
X-83960Y-45700D01*
X-84220Y-45967D01*
X-84437Y-46367D01*
X-84610Y-46833D01*
X-84653Y-47500D01*
X-84610Y-48167D01*
X-84437Y-48633D01*
X-84220Y-49033D01*
X-83960Y-49300D01*
X-83613Y-49500D01*
X-82747D01*
G01X-86580Y-45500D02*
X-87620D01*
G01X-87100D02*
Y-49500D01*
G01X-86580D02*
X-87620D01*
G01X-89373D02*
Y-45500D01*
X-90500Y-48833D01*
X-91627Y-45500D01*
Y-49500D01*
G01X-94767D02*
X-93033D01*
Y-45500D01*
X-94767D01*
G01X-94073Y-47433D02*
X-93033D01*
G01X-96303Y-49500D02*
Y-45500D01*
X-98297Y-49500D01*
Y-45500D01*
G01X-99790Y-48967D02*
X-100137Y-49300D01*
X-100527Y-49500D01*
X-100873D01*
X-101220Y-49300D01*
X-101480Y-48967D01*
X-101610Y-48500D01*
X-101523Y-48033D01*
X-101307Y-47633D01*
X-100917Y-47367D01*
X-100397Y-47233D01*
X-100093Y-46967D01*
X-99963Y-46500D01*
X-100050Y-46033D01*
X-100267Y-45700D01*
X-100570Y-45500D01*
X-100873D01*
X-101177Y-45633D01*
X-101437Y-45967D01*
G01X-103580Y-45500D02*
X-104620D01*
G01X-104100D02*
Y-49500D01*
G01X-103580D02*
X-104620D01*
G01X-107500D02*
X-107153Y-49433D01*
X-106850Y-49167D01*
X-106590Y-48767D01*
X-106417Y-48300D01*
X-106330Y-47767D01*
Y-47233D01*
X-106417Y-46700D01*
X-106590Y-46233D01*
X-106850Y-45833D01*
X-107153Y-45567D01*
X-107500Y-45500D01*
X-107847Y-45567D01*
X-108150Y-45833D01*
X-108410Y-46233D01*
X-108583Y-46700D01*
X-108670Y-47233D01*
Y-47767D01*
X-108583Y-48300D01*
X-108410Y-48767D01*
X-108150Y-49167D01*
X-107847Y-49433D01*
X-107500Y-49500D01*
G01X-109903D02*
Y-45500D01*
X-111897Y-49500D01*
Y-45500D01*
G01X-113390Y-48967D02*
X-113737Y-49300D01*
X-114127Y-49500D01*
X-114473D01*
X-114820Y-49300D01*
X-115080Y-48967D01*
X-115210Y-48500D01*
X-115123Y-48033D01*
X-114907Y-47633D01*
X-114517Y-47367D01*
X-113997Y-47233D01*
X-113693Y-46967D01*
X-113563Y-46500D01*
X-113650Y-46033D01*
X-113867Y-45700D01*
X-114170Y-45500D01*
X-114473D01*
X-114777Y-45633D01*
X-115037Y-45967D01*
G01X-55547Y-38000D02*
Y-40867D01*
X-55720Y-41467D01*
X-56067Y-41867D01*
X-56500Y-42000D01*
X-56933Y-41867D01*
X-57280Y-41467D01*
X-57453Y-40867D01*
Y-38000D01*
G01X-58903Y-42000D02*
Y-38000D01*
X-60897Y-42000D01*
Y-38000D01*
G01X-62433D02*
Y-42000D01*
X-64167D01*
G01X-67567D02*
X-65833D01*
Y-38000D01*
X-67567D01*
G01X-66873Y-39933D02*
X-65833D01*
G01X-69190Y-41467D02*
X-69537Y-41800D01*
X-69927Y-42000D01*
X-70273D01*
X-70620Y-41800D01*
X-70880Y-41467D01*
X-71010Y-41000D01*
X-70923Y-40533D01*
X-70707Y-40133D01*
X-70317Y-39867D01*
X-69797Y-39733D01*
X-69493Y-39467D01*
X-69363Y-39000D01*
X-69450Y-38533D01*
X-69667Y-38200D01*
X-69970Y-38000D01*
X-70273D01*
X-70577Y-38133D01*
X-70837Y-38467D01*
G01X-72590Y-41467D02*
X-72937Y-41800D01*
X-73327Y-42000D01*
X-73673D01*
X-74020Y-41800D01*
X-74280Y-41467D01*
X-74410Y-41000D01*
X-74323Y-40533D01*
X-74107Y-40133D01*
X-73717Y-39867D01*
X-73197Y-39733D01*
X-72893Y-39467D01*
X-72763Y-39000D01*
X-72850Y-38533D01*
X-73067Y-38200D01*
X-73370Y-38000D01*
X-73673D01*
X-73977Y-38133D01*
X-74237Y-38467D01*
G01X-80300Y-42000D02*
X-79953Y-41933D01*
X-79650Y-41667D01*
X-79390Y-41267D01*
X-79217Y-40800D01*
X-79130Y-40267D01*
Y-39733D01*
X-79217Y-39200D01*
X-79390Y-38733D01*
X-79650Y-38333D01*
X-79953Y-38067D01*
X-80300Y-38000D01*
X-80647Y-38067D01*
X-80950Y-38333D01*
X-81210Y-38733D01*
X-81383Y-39200D01*
X-81470Y-39733D01*
Y-40267D01*
X-81383Y-40800D01*
X-81210Y-41267D01*
X-80950Y-41667D01*
X-80647Y-41933D01*
X-80300Y-42000D01*
G01X-83700Y-38000D02*
Y-42000D01*
G01X-82703Y-38000D02*
X-84697D01*
G01X-86190Y-42000D02*
Y-38000D01*
G01X-88010D02*
Y-42000D01*
G01Y-40000D02*
X-86190D01*
G01X-91367Y-42000D02*
X-89633D01*
Y-38000D01*
X-91367D01*
G01X-90673Y-39933D02*
X-89633D01*
G01X-93033Y-42000D02*
Y-38000D01*
X-94117D01*
X-94463Y-38200D01*
X-94680Y-38467D01*
X-94767Y-39000D01*
X-94680Y-39533D01*
X-94420Y-39867D01*
X-94117Y-40067D01*
X-93033D01*
G01X-94117D02*
X-94767Y-42000D01*
G01X-96000Y-38000D02*
X-96607Y-42000D01*
X-97300Y-38000D01*
X-97993Y-42000D01*
X-98600Y-38000D01*
G01X-100180D02*
X-101220D01*
G01X-100700D02*
Y-42000D01*
G01X-100180D02*
X-101220D01*
G01X-103190Y-41467D02*
X-103537Y-41800D01*
X-103927Y-42000D01*
X-104273D01*
X-104620Y-41800D01*
X-104880Y-41467D01*
X-105010Y-41000D01*
X-104923Y-40533D01*
X-104707Y-40133D01*
X-104317Y-39867D01*
X-103797Y-39733D01*
X-103493Y-39467D01*
X-103363Y-39000D01*
X-103450Y-38533D01*
X-103667Y-38200D01*
X-103970Y-38000D01*
X-104273D01*
X-104577Y-38133D01*
X-104837Y-38467D01*
G01X-108367Y-42000D02*
X-106633D01*
Y-38000D01*
X-108367D01*
G01X-107673Y-39933D02*
X-106633D01*
G01X-105000Y-93500D02*
X-102700Y-98000D01*
X-101200Y-95800D01*
G01X-98200Y-83800D02*
X-101200D01*
G01X-98200Y-86000D02*
X-101200D01*
G01X-99700Y-82300D02*
Y-85300D01*
G01X-60517Y-57000D02*
X-61600Y-53000D01*
X-62683Y-57000D01*
G01X-62293Y-55600D02*
X-60907D01*
G01X-64133Y-57000D02*
Y-53000D01*
X-65217D01*
X-65563Y-53200D01*
X-65780Y-53467D01*
X-65867Y-54000D01*
X-65780Y-54533D01*
X-65520Y-54867D01*
X-65217Y-55067D01*
X-64133D01*
G01X-65217D02*
X-65867Y-57000D01*
G01X-69267D02*
X-67533D01*
Y-53000D01*
X-69267D01*
G01X-68573Y-54933D02*
X-67533D01*
G01X-74680Y-53000D02*
X-75720D01*
G01X-75200D02*
Y-57000D01*
G01X-74680D02*
X-75720D01*
G01X-77603D02*
Y-53000D01*
X-79597Y-57000D01*
Y-53000D01*
G01X-84880D02*
X-85920D01*
G01X-85400D02*
Y-57000D01*
G01X-84880D02*
X-85920D01*
G01X-87803D02*
Y-53000D01*
X-89797Y-57000D01*
Y-53000D01*
G01X-93153Y-53333D02*
X-92893Y-53133D01*
X-92590Y-53000D01*
X-92243D01*
X-91853Y-53200D01*
X-91550Y-53533D01*
X-91333Y-53933D01*
X-91160Y-54600D01*
X-91117Y-55200D01*
X-91203Y-55800D01*
X-91333Y-56200D01*
X-91593Y-56600D01*
X-91897Y-56867D01*
X-92200Y-57000D01*
X-92503D01*
X-92807Y-56867D01*
X-93067Y-56667D01*
X-93283Y-56400D01*
G01X-94690Y-57000D02*
Y-53000D01*
G01X-96510D02*
Y-57000D01*
G01Y-55000D02*
X-94690D01*
G01X-99867Y-57000D02*
X-98133D01*
Y-53000D01*
X-99867D01*
G01X-99173Y-54933D02*
X-98133D01*
G01X-101490Y-56467D02*
X-101837Y-56800D01*
X-102227Y-57000D01*
X-102573D01*
X-102920Y-56800D01*
X-103180Y-56467D01*
X-103310Y-56000D01*
X-103223Y-55533D01*
X-103007Y-55133D01*
X-102617Y-54867D01*
X-102097Y-54733D01*
X-101793Y-54467D01*
X-101663Y-54000D01*
X-101750Y-53533D01*
X-101967Y-53200D01*
X-102270Y-53000D01*
X-102573D01*
X-102877Y-53133D01*
X-103137Y-53467D01*
G01X-66700Y-68000D02*
Y-72000D01*
G01X-65703Y-68000D02*
X-67697D01*
G01X-70100Y-72000D02*
X-69753Y-71933D01*
X-69450Y-71667D01*
X-69190Y-71267D01*
X-69017Y-70800D01*
X-68930Y-70267D01*
Y-69733D01*
X-69017Y-69200D01*
X-69190Y-68733D01*
X-69450Y-68333D01*
X-69753Y-68067D01*
X-70100Y-68000D01*
X-70447Y-68067D01*
X-70750Y-68333D01*
X-71010Y-68733D01*
X-71183Y-69200D01*
X-71270Y-69733D01*
Y-70267D01*
X-71183Y-70800D01*
X-71010Y-71267D01*
X-70750Y-71667D01*
X-70447Y-71933D01*
X-70100Y-72000D01*
G01X-72633Y-68000D02*
Y-72000D01*
X-74367D01*
G01X-77767D02*
X-76033D01*
Y-68000D01*
X-77767D01*
G01X-77073Y-69933D02*
X-76033D01*
G01X-79433Y-72000D02*
Y-68000D01*
X-80517D01*
X-80863Y-68200D01*
X-81080Y-68467D01*
X-81167Y-69000D01*
X-81080Y-69533D01*
X-80820Y-69867D01*
X-80517Y-70067D01*
X-79433D01*
G01X-80517D02*
X-81167Y-72000D01*
G01X-82617D02*
X-83700Y-68000D01*
X-84783Y-72000D01*
G01X-84393Y-70600D02*
X-83007D01*
G01X-86103Y-72000D02*
Y-68000D01*
X-88097Y-72000D01*
Y-68000D01*
G01X-91453Y-68333D02*
X-91193Y-68133D01*
X-90890Y-68000D01*
X-90543D01*
X-90153Y-68200D01*
X-89850Y-68533D01*
X-89633Y-68933D01*
X-89460Y-69600D01*
X-89417Y-70200D01*
X-89503Y-70800D01*
X-89633Y-71200D01*
X-89893Y-71600D01*
X-90197Y-71867D01*
X-90500Y-72000D01*
X-90803D01*
X-91107Y-71867D01*
X-91367Y-71667D01*
X-91583Y-71400D01*
G01X-94767Y-72000D02*
X-93033D01*
Y-68000D01*
X-94767D01*
G01X-94073Y-69933D02*
X-93033D01*
G01X-96390Y-71467D02*
X-96737Y-71800D01*
X-97127Y-72000D01*
X-97473D01*
X-97820Y-71800D01*
X-98080Y-71467D01*
X-98210Y-71000D01*
X-98123Y-70533D01*
X-97907Y-70133D01*
X-97517Y-69867D01*
X-96997Y-69733D01*
X-96693Y-69467D01*
X-96563Y-69000D01*
X-96650Y-68533D01*
X-96867Y-68200D01*
X-97170Y-68000D01*
X-97473D01*
X-97777Y-68133D01*
X-98037Y-68467D01*
G01X-66800Y-98133D02*
X-66713Y-98067D01*
Y-97933D01*
X-66800Y-97867D01*
X-66887Y-97933D01*
Y-98067D01*
X-66800Y-98133D01*
G01X-70200Y-94000D02*
X-69853Y-94133D01*
X-69593Y-94467D01*
X-69420Y-94867D01*
X-69290Y-95400D01*
X-69247Y-96000D01*
X-69290Y-96600D01*
X-69420Y-97133D01*
X-69593Y-97533D01*
X-69853Y-97867D01*
X-70200Y-98000D01*
X-70547Y-97867D01*
X-70807Y-97533D01*
X-70980Y-97133D01*
X-71110Y-96600D01*
X-71153Y-96000D01*
X-71110Y-95400D01*
X-70980Y-94867D01*
X-70807Y-94467D01*
X-70547Y-94133D01*
X-70200Y-94000D01*
G01X-73600Y-98000D02*
Y-94000D01*
X-73080Y-94800D01*
G01Y-98000D02*
X-74120D01*
G01X-77000Y-94000D02*
X-76653Y-94133D01*
X-76393Y-94467D01*
X-76220Y-94867D01*
X-76090Y-95400D01*
X-76047Y-96000D01*
X-76090Y-96600D01*
X-76220Y-97133D01*
X-76393Y-97533D01*
X-76653Y-97867D01*
X-77000Y-98000D01*
X-77347Y-97867D01*
X-77607Y-97533D01*
X-77780Y-97133D01*
X-77910Y-96600D01*
X-77953Y-96000D01*
X-77910Y-95400D01*
X-77780Y-94867D01*
X-77607Y-94467D01*
X-77347Y-94133D01*
X-77000Y-94000D01*
G01X-66800Y-92133D02*
X-66713Y-92067D01*
Y-91933D01*
X-66800Y-91867D01*
X-66887Y-91933D01*
Y-92067D01*
X-66800Y-92133D01*
G01X-70200Y-88000D02*
X-69853Y-88133D01*
X-69593Y-88467D01*
X-69420Y-88867D01*
X-69290Y-89400D01*
X-69247Y-90000D01*
X-69290Y-90600D01*
X-69420Y-91133D01*
X-69593Y-91533D01*
X-69853Y-91867D01*
X-70200Y-92000D01*
X-70547Y-91867D01*
X-70807Y-91533D01*
X-70980Y-91133D01*
X-71110Y-90600D01*
X-71153Y-90000D01*
X-71110Y-89400D01*
X-70980Y-88867D01*
X-70807Y-88467D01*
X-70547Y-88133D01*
X-70200Y-88000D01*
G01X-72647Y-91200D02*
X-72907Y-91667D01*
X-73253Y-91933D01*
X-73643Y-92000D01*
X-73990Y-91933D01*
X-74337Y-91600D01*
X-74553Y-91200D01*
X-74597Y-90800D01*
X-74510Y-90333D01*
X-74207Y-90000D01*
X-73903Y-89867D01*
X-73513D01*
G01X-73903D02*
X-74163Y-89667D01*
X-74380Y-89333D01*
X-74467Y-88933D01*
X-74380Y-88533D01*
X-74163Y-88200D01*
X-73773Y-88000D01*
X-73383Y-88067D01*
X-72993Y-88333D01*
G01X-66800Y-86133D02*
X-66713Y-86067D01*
Y-85933D01*
X-66800Y-85867D01*
X-66887Y-85933D01*
Y-86067D01*
X-66800Y-86133D01*
G01X-70200Y-86000D02*
Y-82000D01*
X-69680Y-82800D01*
G01Y-86000D02*
X-70720D01*
G01X-51847Y-80500D02*
Y-76500D01*
X-52713D01*
X-53060Y-76700D01*
X-53320Y-76967D01*
X-53537Y-77367D01*
X-53710Y-77833D01*
X-53753Y-78500D01*
X-53710Y-79167D01*
X-53537Y-79633D01*
X-53320Y-80033D01*
X-53060Y-80300D01*
X-52713Y-80500D01*
X-51847D01*
G01X-57067D02*
X-55333D01*
Y-76500D01*
X-57067D01*
G01X-56373Y-78433D02*
X-55333D01*
G01X-60553Y-76833D02*
X-60293Y-76633D01*
X-59990Y-76500D01*
X-59643D01*
X-59253Y-76700D01*
X-58950Y-77033D01*
X-58733Y-77433D01*
X-58560Y-78100D01*
X-58517Y-78700D01*
X-58603Y-79300D01*
X-58733Y-79700D01*
X-58993Y-80100D01*
X-59297Y-80367D01*
X-59600Y-80500D01*
X-59903D01*
X-60207Y-80367D01*
X-60467Y-80167D01*
X-60683Y-79900D01*
G01X-62480Y-76500D02*
X-63520D01*
G01X-63000D02*
Y-80500D01*
G01X-62480D02*
X-63520D01*
G01X-65273D02*
Y-76500D01*
X-66400Y-79833D01*
X-67527Y-76500D01*
Y-80500D01*
G01X-68717D02*
X-69800Y-76500D01*
X-70883Y-80500D01*
G01X-70493Y-79100D02*
X-69107D01*
G01X-72333Y-76500D02*
Y-80500D01*
X-74067D01*
G01X-50490Y-98000D02*
X-52310Y-94000D01*
G01X-50490D02*
X-52310Y-98000D01*
G01X-53890D02*
X-55710Y-94000D01*
G01X-53890D02*
X-55710Y-98000D01*
G01X-57290D02*
X-59110Y-94000D01*
G01X-57290D02*
X-59110Y-98000D01*
G01X-61500D02*
X-64500D01*
G01X-63000Y-94300D02*
Y-97300D01*
G01X-61500Y-95800D02*
X-64500D01*
G01X-53890Y-92000D02*
X-55710Y-88000D01*
G01X-53890D02*
X-55710Y-92000D01*
G01X-57290D02*
X-59110Y-88000D01*
G01X-57290D02*
X-59110Y-92000D01*
G01X-57290Y-86000D02*
X-59110Y-82000D01*
G01X-57290D02*
X-59110Y-86000D01*
G01X-61500Y-83800D02*
X-64500D01*
G01X-61500Y-86000D02*
X-64500D01*
G01X-63000Y-82300D02*
Y-85300D01*
G01X-61500Y-92000D02*
X-64500D01*
G01X-63000Y-88300D02*
Y-91300D01*
G01X-61500Y-89800D02*
X-64500D01*
G01X-26100Y-94000D02*
X-25407Y-94267D01*
X-24887Y-94933D01*
X-24540Y-95733D01*
X-24280Y-96800D01*
X-24193Y-98000D01*
X-24280Y-99200D01*
X-24540Y-100267D01*
X-24887Y-101067D01*
X-25407Y-101733D01*
X-26100Y-102000D01*
X-26793Y-101733D01*
X-27313Y-101067D01*
X-27660Y-100267D01*
X-27920Y-99200D01*
X-28007Y-98000D01*
X-27920Y-96800D01*
X-27660Y-95733D01*
X-27313Y-94933D01*
X-26793Y-94267D01*
X-26100Y-94000D01*
G01X-32900D02*
X-32207Y-94267D01*
X-31687Y-94933D01*
X-31340Y-95733D01*
X-31080Y-96800D01*
X-30993Y-98000D01*
X-31080Y-99200D01*
X-31340Y-100267D01*
X-31687Y-101067D01*
X-32207Y-101733D01*
X-32900Y-102000D01*
X-33593Y-101733D01*
X-34113Y-101067D01*
X-34460Y-100267D01*
X-34720Y-99200D01*
X-34807Y-98000D01*
X-34720Y-96800D01*
X-34460Y-95733D01*
X-34113Y-94933D01*
X-33593Y-94267D01*
X-32900Y-94000D01*
G01X-44500Y-29500D02*
Y-104500D01*
G01X-20367Y-89500D02*
Y-83500D01*
X-22033D01*
X-22567Y-83800D01*
X-22900Y-84200D01*
X-23033Y-85000D01*
X-22900Y-85800D01*
X-22500Y-86300D01*
X-22033Y-86600D01*
X-20367D01*
G01X-22033D02*
X-23033Y-89500D01*
G01X-28233D02*
X-25567D01*
Y-83500D01*
X-28233D01*
G01X-27167Y-86400D02*
X-25567D01*
G01X-30433Y-83500D02*
X-32100Y-89500D01*
X-33767Y-83500D01*
G01X-37300Y-89700D02*
X-37167Y-89600D01*
Y-89400D01*
X-37300Y-89300D01*
X-37433Y-89400D01*
Y-89600D01*
X-37300Y-89700D01*
G01X-44500Y-82000D02*
X153000D01*
G01X-44500Y-59500D02*
X153000D01*
G01X-14500Y-82000D02*
Y-104500D01*
G01X116907Y-75233D02*
X116560Y-74833D01*
X116300Y-74167D01*
X116127Y-73233D01*
X116300Y-72433D01*
X116647Y-71900D01*
X117253Y-71500D01*
X119593D01*
Y-79500D01*
X116733D01*
X116127Y-78967D01*
X115780Y-78167D01*
X115607Y-77233D01*
X115780Y-76300D01*
X116300Y-75500D01*
X116907Y-75233D01*
X119593D01*
G01X112707Y-71500D02*
Y-77233D01*
X112360Y-78434D01*
X111667Y-79233D01*
X110800Y-79500D01*
X109933Y-79233D01*
X109240Y-78434D01*
X108893Y-77233D01*
Y-71500D01*
G01X105473Y-78567D02*
X104867Y-79233D01*
X104173Y-79500D01*
X103480Y-79233D01*
X102873Y-78434D01*
X102440Y-77233D01*
X102267Y-76033D01*
Y-74567D01*
X102440Y-73367D01*
X102873Y-72300D01*
X103393Y-71767D01*
X104000Y-71500D01*
X104693Y-71767D01*
X105213Y-72300D01*
X105560Y-73100D01*
X105733Y-74167D01*
X105560Y-75100D01*
X105127Y-76033D01*
X104607Y-76567D01*
X104000Y-76700D01*
X103307Y-76434D01*
X102787Y-75767D01*
X102267Y-74567D01*
G01X97200Y-71500D02*
X97893Y-71767D01*
X98413Y-72433D01*
X98760Y-73233D01*
X99020Y-74300D01*
X99107Y-75500D01*
X99020Y-76700D01*
X98760Y-77767D01*
X98413Y-78567D01*
X97893Y-79233D01*
X97200Y-79500D01*
X96507Y-79233D01*
X95987Y-78567D01*
X95640Y-77767D01*
X95380Y-76700D01*
X95293Y-75500D01*
X95380Y-74300D01*
X95640Y-73233D01*
X95987Y-72433D01*
X96507Y-71767D01*
X97200Y-71500D01*
G01X90400D02*
X91093Y-71767D01*
X91613Y-72433D01*
X91960Y-73233D01*
X92220Y-74300D01*
X92307Y-75500D01*
X92220Y-76700D01*
X91960Y-77767D01*
X91613Y-78567D01*
X91093Y-79233D01*
X90400Y-79500D01*
X89707Y-79233D01*
X89187Y-78567D01*
X88840Y-77767D01*
X88580Y-76700D01*
X88493Y-75500D01*
X88580Y-74300D01*
X88840Y-73233D01*
X89187Y-72433D01*
X89707Y-71767D01*
X90400Y-71500D01*
G01X83600D02*
X84293Y-71767D01*
X84813Y-72433D01*
X85160Y-73233D01*
X85420Y-74300D01*
X85507Y-75500D01*
X85420Y-76700D01*
X85160Y-77767D01*
X84813Y-78567D01*
X84293Y-79233D01*
X83600Y-79500D01*
X82907Y-79233D01*
X82387Y-78567D01*
X82040Y-77767D01*
X81780Y-76700D01*
X81693Y-75500D01*
X81780Y-74300D01*
X82040Y-73233D01*
X82387Y-72433D01*
X82907Y-71767D01*
X83600Y-71500D01*
G01X75760Y-79500D02*
Y-71500D01*
X78967Y-77233D01*
X74633D01*
G01X69480Y-75500D02*
X67747D01*
Y-77900D01*
X68267Y-78700D01*
X68873Y-79233D01*
X69740Y-79500D01*
X70607Y-79233D01*
X71213Y-78700D01*
X71733Y-77900D01*
X72080Y-76967D01*
X72253Y-75900D01*
Y-74967D01*
X72080Y-74167D01*
X71733Y-73233D01*
X71213Y-72433D01*
X70693Y-71900D01*
X70000Y-71500D01*
X69393D01*
X68700Y-71767D01*
X68180Y-72300D01*
G01X65800Y-71500D02*
X64587Y-79500D01*
X63200Y-71500D01*
X61813Y-79500D01*
X60600Y-71500D01*
G01X58047D02*
X54753D01*
X58047Y-79500D01*
X54753D01*
G01X50727Y-76833D02*
X48473D01*
G01X41067Y-79500D02*
X44533D01*
Y-71500D01*
X41067D01*
G01X42453Y-75367D02*
X44533D01*
G01X37647Y-72833D02*
X37127Y-72034D01*
X36520Y-71633D01*
X35827Y-71500D01*
X34960Y-71767D01*
X34353Y-72433D01*
X34180Y-73233D01*
X34267Y-74034D01*
X34613Y-74700D01*
X36347Y-76033D01*
X37127Y-76967D01*
X37647Y-78300D01*
X37820Y-79500D01*
X34180D01*
G01X27467D02*
X30933D01*
Y-71500D01*
X27467D01*
G01X28853Y-75367D02*
X30933D01*
G01X24567Y-71500D02*
X22400Y-79500D01*
X20233Y-71500D01*
G01X17507Y-79500D02*
Y-71500D01*
G01X14213D02*
X17507Y-76434D01*
G01X13693Y-79500D02*
X16033Y-74167D01*
G01X9927Y-76833D02*
X7673D01*
G01X2000Y-79500D02*
Y-71500D01*
X3040Y-73100D01*
G01Y-79500D02*
X960D01*
G01X-4800Y-71500D02*
X-4107Y-71767D01*
X-3587Y-72433D01*
X-3240Y-73233D01*
X-2980Y-74300D01*
X-2893Y-75500D01*
X-2980Y-76700D01*
X-3240Y-77767D01*
X-3587Y-78567D01*
X-4107Y-79233D01*
X-4800Y-79500D01*
X-5493Y-79233D01*
X-6013Y-78567D01*
X-6360Y-77767D01*
X-6620Y-76700D01*
X-6707Y-75500D01*
X-6620Y-74300D01*
X-6360Y-73233D01*
X-6013Y-72433D01*
X-5493Y-71767D01*
X-4800Y-71500D01*
G01X-11600Y-79500D02*
Y-71500D01*
X-10560Y-73100D01*
G01Y-79500D02*
X-12640D01*
G01X126133Y-54500D02*
Y-46500D01*
X123967D01*
X123273Y-46900D01*
X122840Y-47433D01*
X122667Y-48500D01*
X122840Y-49567D01*
X123360Y-50233D01*
X123967Y-50633D01*
X126133D01*
G01X123967D02*
X122667Y-54500D01*
G01X117600D02*
X118293Y-54367D01*
X118900Y-53834D01*
X119420Y-53033D01*
X119767Y-52100D01*
X119940Y-51033D01*
Y-49967D01*
X119767Y-48900D01*
X119420Y-47967D01*
X118900Y-47167D01*
X118293Y-46633D01*
X117600Y-46500D01*
X116907Y-46633D01*
X116300Y-47167D01*
X115780Y-47967D01*
X115433Y-48900D01*
X115260Y-49967D01*
Y-51033D01*
X115433Y-52100D01*
X115780Y-53033D01*
X116300Y-53834D01*
X116907Y-54367D01*
X117600Y-54500D01*
G01X112620D02*
Y-46500D01*
G01X108980D02*
Y-54500D01*
G01Y-50500D02*
X112620D01*
G01X106253Y-54500D02*
Y-46500D01*
X104000Y-53167D01*
X101747Y-46500D01*
Y-54500D01*
G01X92220Y-53434D02*
X91527Y-54100D01*
X90747Y-54500D01*
X90053D01*
X89360Y-54100D01*
X88840Y-53434D01*
X88580Y-52500D01*
X88753Y-51567D01*
X89187Y-50767D01*
X89967Y-50233D01*
X91007Y-49967D01*
X91613Y-49433D01*
X91873Y-48500D01*
X91700Y-47567D01*
X91267Y-46900D01*
X90660Y-46500D01*
X90053D01*
X89447Y-46767D01*
X88927Y-47433D01*
G01X81867Y-54500D02*
X85333D01*
Y-46500D01*
X81867D01*
G01X83253Y-50367D02*
X85333D01*
G01X79053Y-54500D02*
Y-46500D01*
X76800Y-53167D01*
X74547Y-46500D01*
Y-54500D01*
G01X71040Y-46500D02*
X68960D01*
G01X70000D02*
Y-54500D01*
G01X71040D02*
X68960D01*
G01X61293Y-47167D02*
X61813Y-46767D01*
X62420Y-46500D01*
X63113D01*
X63893Y-46900D01*
X64500Y-47567D01*
X64933Y-48367D01*
X65280Y-49700D01*
X65367Y-50900D01*
X65193Y-52100D01*
X64933Y-52900D01*
X64413Y-53700D01*
X63807Y-54233D01*
X63200Y-54500D01*
X62593D01*
X61987Y-54233D01*
X61467Y-53834D01*
X61033Y-53300D01*
G01X56400Y-54500D02*
X57093Y-54367D01*
X57700Y-53834D01*
X58220Y-53033D01*
X58567Y-52100D01*
X58740Y-51033D01*
Y-49967D01*
X58567Y-48900D01*
X58220Y-47967D01*
X57700Y-47167D01*
X57093Y-46633D01*
X56400Y-46500D01*
X55707Y-46633D01*
X55100Y-47167D01*
X54580Y-47967D01*
X54233Y-48900D01*
X54060Y-49967D01*
Y-51033D01*
X54233Y-52100D01*
X54580Y-53033D01*
X55100Y-53834D01*
X55707Y-54367D01*
X56400Y-54500D01*
G01X51593D02*
Y-46500D01*
X47607Y-54500D01*
Y-46500D01*
G01X44707Y-54500D02*
Y-46500D01*
X42973D01*
X42280Y-46900D01*
X41760Y-47433D01*
X41327Y-48233D01*
X40980Y-49167D01*
X40893Y-50500D01*
X40980Y-51833D01*
X41327Y-52767D01*
X41760Y-53567D01*
X42280Y-54100D01*
X42973Y-54500D01*
X44707D01*
G01X37907Y-46500D02*
Y-52233D01*
X37560Y-53434D01*
X36867Y-54233D01*
X36000Y-54500D01*
X35133Y-54233D01*
X34440Y-53434D01*
X34093Y-52233D01*
Y-46500D01*
G01X27293Y-47167D02*
X27813Y-46767D01*
X28420Y-46500D01*
X29113D01*
X29893Y-46900D01*
X30500Y-47567D01*
X30933Y-48367D01*
X31280Y-49700D01*
X31367Y-50900D01*
X31193Y-52100D01*
X30933Y-52900D01*
X30413Y-53700D01*
X29807Y-54233D01*
X29200Y-54500D01*
X28593D01*
X27987Y-54233D01*
X27467Y-53834D01*
X27033Y-53300D01*
G01X22400Y-46500D02*
Y-54500D01*
G01X24393Y-46500D02*
X20407D01*
G01X15600Y-54500D02*
X16293Y-54367D01*
X16900Y-53834D01*
X17420Y-53033D01*
X17767Y-52100D01*
X17940Y-51033D01*
Y-49967D01*
X17767Y-48900D01*
X17420Y-47967D01*
X16900Y-47167D01*
X16293Y-46633D01*
X15600Y-46500D01*
X14907Y-46633D01*
X14300Y-47167D01*
X13780Y-47967D01*
X13433Y-48900D01*
X13260Y-49967D01*
Y-51033D01*
X13433Y-52100D01*
X13780Y-53033D01*
X14300Y-53834D01*
X14907Y-54367D01*
X15600Y-54500D01*
G01X10533D02*
Y-46500D01*
X8367D01*
X7673Y-46900D01*
X7240Y-47433D01*
X7067Y-48500D01*
X7240Y-49567D01*
X7760Y-50233D01*
X8367Y-50633D01*
X10533D01*
G01X8367D02*
X7067Y-54500D01*
G01X-2893Y-46500D02*
Y-52233D01*
X-3240Y-53434D01*
X-3933Y-54233D01*
X-4800Y-54500D01*
X-5667Y-54233D01*
X-6360Y-53434D01*
X-6707Y-52233D01*
Y-46500D01*
G01X-9780Y-53434D02*
X-10473Y-54100D01*
X-11253Y-54500D01*
X-11947D01*
X-12640Y-54100D01*
X-13160Y-53434D01*
X-13420Y-52500D01*
X-13247Y-51567D01*
X-12813Y-50767D01*
X-12033Y-50233D01*
X-10993Y-49967D01*
X-10387Y-49433D01*
X-10127Y-48500D01*
X-10300Y-47567D01*
X-10733Y-46900D01*
X-11340Y-46500D01*
X-11947D01*
X-12553Y-46767D01*
X-13073Y-47433D01*
G01X-16233Y-54500D02*
X-18400Y-46500D01*
X-20567Y-54500D01*
G01X-19787Y-51700D02*
X-17013D01*
G01X-17500Y230500D02*
X199035D01*
Y-17531D01*
X-17500D01*
Y230500D01*
G01X89493Y-102000D02*
Y-94000D01*
X85507Y-102000D01*
Y-94000D01*
G01X82607D02*
Y-99733D01*
X82260Y-100934D01*
X81567Y-101733D01*
X80700Y-102000D01*
X79833Y-101733D01*
X79140Y-100934D01*
X78793Y-99733D01*
Y-94000D01*
G01X76153Y-102000D02*
Y-94000D01*
X73900Y-100667D01*
X71647Y-94000D01*
Y-102000D01*
G01X66407Y-97733D02*
X66060Y-97333D01*
X65800Y-96667D01*
X65627Y-95733D01*
X65800Y-94933D01*
X66147Y-94400D01*
X66753Y-94000D01*
X69093D01*
Y-102000D01*
X66233D01*
X65627Y-101467D01*
X65280Y-100667D01*
X65107Y-99733D01*
X65280Y-98800D01*
X65800Y-98000D01*
X66407Y-97733D01*
X69093D01*
G01X58567Y-102000D02*
X62033D01*
Y-94000D01*
X58567D01*
G01X59953Y-97867D02*
X62033D01*
G01X55233Y-102000D02*
Y-94000D01*
X53067D01*
X52373Y-94400D01*
X51940Y-94933D01*
X51767Y-96000D01*
X51940Y-97067D01*
X52460Y-97733D01*
X53067Y-98133D01*
X55233D01*
G01X53067D02*
X51767Y-102000D01*
G01X149833Y-89500D02*
Y-83500D01*
X148233D01*
X147700Y-83800D01*
X147300Y-84500D01*
X147167Y-85300D01*
X147300Y-86100D01*
X147633Y-86700D01*
X148233Y-87000D01*
X149833D01*
G01X144633Y-89500D02*
Y-83500D01*
X142967D01*
X142433Y-83800D01*
X142100Y-84200D01*
X141967Y-85000D01*
X142100Y-85800D01*
X142500Y-86300D01*
X142967Y-86600D01*
X144633D01*
G01X142967D02*
X141967Y-89500D01*
G01X138100D02*
X138633Y-89400D01*
X139100Y-89000D01*
X139500Y-88400D01*
X139767Y-87700D01*
X139900Y-86900D01*
Y-86100D01*
X139767Y-85300D01*
X139500Y-84600D01*
X139100Y-84000D01*
X138633Y-83600D01*
X138100Y-83500D01*
X137567Y-83600D01*
X137100Y-84000D01*
X136700Y-84600D01*
X136433Y-85300D01*
X136300Y-86100D01*
Y-86900D01*
X136433Y-87700D01*
X136700Y-88400D01*
X137100Y-89000D01*
X137567Y-89400D01*
X138100Y-89500D01*
G01X134233Y-88300D02*
X133900Y-88900D01*
X133500Y-89300D01*
X133033Y-89500D01*
X132500Y-89300D01*
X132100Y-88900D01*
X131700Y-88300D01*
X131567Y-87500D01*
Y-83500D01*
G01X126367Y-89500D02*
X129033D01*
Y-83500D01*
X126367D01*
G01X127433Y-86400D02*
X129033D01*
G01X121033Y-84000D02*
X121433Y-83700D01*
X121900Y-83500D01*
X122433D01*
X123033Y-83800D01*
X123500Y-84300D01*
X123833Y-84900D01*
X124100Y-85900D01*
X124167Y-86800D01*
X124033Y-87700D01*
X123833Y-88300D01*
X123433Y-88900D01*
X122967Y-89300D01*
X122500Y-89500D01*
X122033D01*
X121567Y-89300D01*
X121167Y-89000D01*
X120833Y-88600D01*
G01X117300Y-83500D02*
Y-89500D01*
G01X118833Y-83500D02*
X115767D01*
G01X108433Y-89500D02*
Y-83500D01*
X105367Y-89500D01*
Y-83500D01*
G01X103167D02*
Y-87800D01*
X102900Y-88700D01*
X102367Y-89300D01*
X101700Y-89500D01*
X101033Y-89300D01*
X100500Y-88700D01*
X100233Y-87800D01*
Y-83500D01*
G01X98233Y-89500D02*
Y-83500D01*
X96500Y-88500D01*
X94767Y-83500D01*
Y-89500D01*
G01X90767Y-86300D02*
X90500Y-86000D01*
X90300Y-85500D01*
X90167Y-84800D01*
X90300Y-84200D01*
X90567Y-83800D01*
X91033Y-83500D01*
X92833D01*
Y-89500D01*
X90633D01*
X90167Y-89100D01*
X89900Y-88500D01*
X89767Y-87800D01*
X89900Y-87100D01*
X90300Y-86500D01*
X90767Y-86300D01*
X92833D01*
G01X84767Y-89500D02*
X87433D01*
Y-83500D01*
X84767D01*
G01X85833Y-86400D02*
X87433D01*
G01X82233Y-89500D02*
Y-83500D01*
X80567D01*
X80033Y-83800D01*
X79700Y-84200D01*
X79567Y-85000D01*
X79700Y-85800D01*
X80100Y-86300D01*
X80567Y-86600D01*
X82233D01*
G01X80567D02*
X79567Y-89500D01*
G01X75700Y-89700D02*
X75833Y-89600D01*
Y-89400D01*
X75700Y-89300D01*
X75567Y-89400D01*
Y-89600D01*
X75700Y-89700D01*
G01Y-87000D02*
X75833Y-86900D01*
Y-86700D01*
X75700Y-86600D01*
X75567Y-86700D01*
Y-86900D01*
X75700Y-87000D01*
G01X149833Y-67000D02*
Y-61000D01*
X148233D01*
X147700Y-61300D01*
X147300Y-62000D01*
X147167Y-62800D01*
X147300Y-63600D01*
X147633Y-64200D01*
X148233Y-64500D01*
X149833D01*
G01X144633Y-67000D02*
Y-61000D01*
X142967D01*
X142433Y-61300D01*
X142100Y-61700D01*
X141967Y-62500D01*
X142100Y-63300D01*
X142500Y-63800D01*
X142967Y-64100D01*
X144633D01*
G01X142967D02*
X141967Y-67000D01*
G01X138100D02*
X138633Y-66900D01*
X139100Y-66500D01*
X139500Y-65900D01*
X139767Y-65200D01*
X139900Y-64400D01*
Y-63600D01*
X139767Y-62800D01*
X139500Y-62100D01*
X139100Y-61500D01*
X138633Y-61100D01*
X138100Y-61000D01*
X137567Y-61100D01*
X137100Y-61500D01*
X136700Y-62100D01*
X136433Y-62800D01*
X136300Y-63600D01*
Y-64400D01*
X136433Y-65200D01*
X136700Y-65900D01*
X137100Y-66500D01*
X137567Y-66900D01*
X138100Y-67000D01*
G01X134233Y-65800D02*
X133900Y-66400D01*
X133500Y-66800D01*
X133033Y-67000D01*
X132500Y-66800D01*
X132100Y-66400D01*
X131700Y-65800D01*
X131567Y-65000D01*
Y-61000D01*
G01X126367Y-67000D02*
X129033D01*
Y-61000D01*
X126367D01*
G01X127433Y-63900D02*
X129033D01*
G01X121033Y-61500D02*
X121433Y-61200D01*
X121900Y-61000D01*
X122433D01*
X123033Y-61300D01*
X123500Y-61800D01*
X123833Y-62400D01*
X124100Y-63400D01*
X124167Y-64300D01*
X124033Y-65200D01*
X123833Y-65800D01*
X123433Y-66400D01*
X122967Y-66800D01*
X122500Y-67000D01*
X122033D01*
X121567Y-66800D01*
X121167Y-66500D01*
X120833Y-66100D01*
G01X117300Y-61000D02*
Y-67000D01*
G01X118833Y-61000D02*
X115767D01*
G01X108433Y-67000D02*
Y-61000D01*
X105367Y-67000D01*
Y-61000D01*
G01X103367Y-67000D02*
X101700Y-61000D01*
X100033Y-67000D01*
G01X100633Y-64900D02*
X102767D01*
G01X98233Y-67000D02*
Y-61000D01*
X96500Y-66000D01*
X94767Y-61000D01*
Y-67000D01*
G01X89967D02*
X92633D01*
Y-61000D01*
X89967D01*
G01X91033Y-63900D02*
X92633D01*
G01X86100Y-67200D02*
X86233Y-67100D01*
Y-66900D01*
X86100Y-66800D01*
X85967Y-66900D01*
Y-67100D01*
X86100Y-67200D01*
G01Y-64500D02*
X86233Y-64400D01*
Y-64200D01*
X86100Y-64100D01*
X85967Y-64200D01*
Y-64400D01*
X86100Y-64500D01*
G01X147033Y-31500D02*
X147433Y-31200D01*
X147900Y-31000D01*
X148433D01*
X149033Y-31300D01*
X149500Y-31800D01*
X149833Y-32400D01*
X150100Y-33400D01*
X150167Y-34300D01*
X150033Y-35200D01*
X149833Y-35800D01*
X149433Y-36400D01*
X148967Y-36800D01*
X148500Y-37000D01*
X148033D01*
X147567Y-36800D01*
X147167Y-36500D01*
X146833Y-36100D01*
G01X143300Y-37000D02*
X143833Y-36900D01*
X144300Y-36500D01*
X144700Y-35900D01*
X144967Y-35200D01*
X145100Y-34400D01*
Y-33600D01*
X144967Y-32800D01*
X144700Y-32100D01*
X144300Y-31500D01*
X143833Y-31100D01*
X143300Y-31000D01*
X142767Y-31100D01*
X142300Y-31500D01*
X141900Y-32100D01*
X141633Y-32800D01*
X141500Y-33600D01*
Y-34400D01*
X141633Y-35200D01*
X141900Y-35900D01*
X142300Y-36500D01*
X142767Y-36900D01*
X143300Y-37000D01*
G01X139833D02*
Y-31000D01*
X138100Y-36000D01*
X136367Y-31000D01*
Y-37000D01*
G01X134233D02*
Y-31000D01*
X132633D01*
X132100Y-31300D01*
X131700Y-32000D01*
X131567Y-32800D01*
X131700Y-33600D01*
X132033Y-34200D01*
X132633Y-34500D01*
X134233D01*
G01X129367Y-37000D02*
X127700Y-31000D01*
X126033Y-37000D01*
G01X126633Y-34900D02*
X128767D01*
G01X124033Y-37000D02*
Y-31000D01*
X120967Y-37000D01*
Y-31000D01*
G01X117300Y-37000D02*
Y-34300D01*
X118633Y-31000D01*
G01X115967D02*
X117300Y-34300D01*
G01X108433Y-37000D02*
Y-31000D01*
X105367Y-37000D01*
Y-31000D01*
G01X103367Y-37000D02*
X101700Y-31000D01*
X100033Y-37000D01*
G01X100633Y-34900D02*
X102767D01*
G01X98233Y-37000D02*
Y-31000D01*
X96500Y-36000D01*
X94767Y-31000D01*
Y-37000D01*
G01X89967D02*
X92633D01*
Y-31000D01*
X89967D01*
G01X91033Y-33900D02*
X92633D01*
G01X86100Y-37200D02*
X86233Y-37100D01*
Y-36900D01*
X86100Y-36800D01*
X85967Y-36900D01*
Y-37100D01*
X86100Y-37200D01*
G01Y-34500D02*
X86233Y-34400D01*
Y-34200D01*
X86100Y-34100D01*
X85967Y-34200D01*
Y-34400D01*
X86100Y-34500D01*
G01X153000Y-29500D02*
Y-104500D01*
G01X231467Y-79500D02*
Y-74500D01*
X230133D01*
X229707Y-74750D01*
X229440Y-75083D01*
X229333Y-75750D01*
X229440Y-76417D01*
X229760Y-76833D01*
X230133Y-77083D01*
X231467D01*
G01X230133D02*
X229333Y-79500D01*
G01X226200D02*
X226627Y-79417D01*
X227000Y-79083D01*
X227320Y-78583D01*
X227533Y-78000D01*
X227640Y-77333D01*
Y-76667D01*
X227533Y-76000D01*
X227320Y-75417D01*
X227000Y-74917D01*
X226627Y-74583D01*
X226200Y-74500D01*
X225773Y-74583D01*
X225400Y-74917D01*
X225080Y-75417D01*
X224867Y-76000D01*
X224760Y-76667D01*
Y-77333D01*
X224867Y-78000D01*
X225080Y-78583D01*
X225400Y-79083D01*
X225773Y-79417D01*
X226200Y-79500D01*
G01X223120D02*
Y-74500D01*
G01X220880D02*
Y-79500D01*
G01Y-77000D02*
X223120D01*
G01X219187Y-79500D02*
Y-74500D01*
X217800Y-78667D01*
X216413Y-74500D01*
Y-79500D01*
G01X210520Y-78834D02*
X210093Y-79250D01*
X209613Y-79500D01*
X209187D01*
X208760Y-79250D01*
X208440Y-78834D01*
X208280Y-78250D01*
X208387Y-77667D01*
X208653Y-77167D01*
X209133Y-76833D01*
X209773Y-76667D01*
X210147Y-76333D01*
X210307Y-75750D01*
X210200Y-75167D01*
X209933Y-74750D01*
X209560Y-74500D01*
X209187D01*
X208813Y-74667D01*
X208493Y-75083D01*
G01X204133Y-79500D02*
X206267D01*
Y-74500D01*
X204133D01*
G01X204987Y-76917D02*
X206267D01*
G01X202387Y-79500D02*
Y-74500D01*
X201000Y-78667D01*
X199613Y-74500D01*
Y-79500D01*
G01X197440Y-74500D02*
X196160D01*
G01X196800D02*
Y-79500D01*
G01X197440D02*
X196160D01*
G01X191427Y-74917D02*
X191747Y-74667D01*
X192120Y-74500D01*
X192547D01*
X193027Y-74750D01*
X193400Y-75167D01*
X193667Y-75667D01*
X193880Y-76500D01*
X193933Y-77250D01*
X193827Y-78000D01*
X193667Y-78500D01*
X193347Y-79000D01*
X192973Y-79333D01*
X192600Y-79500D01*
X192227D01*
X191853Y-79333D01*
X191533Y-79083D01*
X191267Y-78750D01*
G01X188400Y-79500D02*
X188827Y-79417D01*
X189200Y-79083D01*
X189520Y-78583D01*
X189733Y-78000D01*
X189840Y-77333D01*
Y-76667D01*
X189733Y-76000D01*
X189520Y-75417D01*
X189200Y-74917D01*
X188827Y-74583D01*
X188400Y-74500D01*
X187973Y-74583D01*
X187600Y-74917D01*
X187280Y-75417D01*
X187067Y-76000D01*
X186960Y-76667D01*
Y-77333D01*
X187067Y-78000D01*
X187280Y-78583D01*
X187600Y-79083D01*
X187973Y-79417D01*
X188400Y-79500D01*
G01X185427D02*
Y-74500D01*
X182973Y-79500D01*
Y-74500D01*
G01X181173Y-79500D02*
Y-74500D01*
X180107D01*
X179680Y-74750D01*
X179360Y-75083D01*
X179093Y-75583D01*
X178880Y-76167D01*
X178827Y-77000D01*
X178880Y-77833D01*
X179093Y-78417D01*
X179360Y-78917D01*
X179680Y-79250D01*
X180107Y-79500D01*
X181173D01*
G01X176973Y-74500D02*
Y-78083D01*
X176760Y-78834D01*
X176333Y-79333D01*
X175800Y-79500D01*
X175267Y-79333D01*
X174840Y-78834D01*
X174627Y-78083D01*
Y-74500D01*
G01X170427Y-74917D02*
X170747Y-74667D01*
X171120Y-74500D01*
X171547D01*
X172027Y-74750D01*
X172400Y-75167D01*
X172667Y-75667D01*
X172880Y-76500D01*
X172933Y-77250D01*
X172827Y-78000D01*
X172667Y-78500D01*
X172347Y-79000D01*
X171973Y-79333D01*
X171600Y-79500D01*
X171227D01*
X170853Y-79333D01*
X170533Y-79083D01*
X170267Y-78750D01*
G01X167400Y-74500D02*
Y-79500D01*
G01X168627Y-74500D02*
X166173D01*
G01X163200Y-79500D02*
X163627Y-79417D01*
X164000Y-79083D01*
X164320Y-78583D01*
X164533Y-78000D01*
X164640Y-77333D01*
Y-76667D01*
X164533Y-76000D01*
X164320Y-75417D01*
X164000Y-74917D01*
X163627Y-74583D01*
X163200Y-74500D01*
X162773Y-74583D01*
X162400Y-74917D01*
X162080Y-75417D01*
X161867Y-76000D01*
X161760Y-76667D01*
Y-77333D01*
X161867Y-78000D01*
X162080Y-78583D01*
X162400Y-79083D01*
X162773Y-79417D01*
X163200Y-79500D01*
G01X160067D02*
Y-74500D01*
X158733D01*
X158307Y-74750D01*
X158040Y-75083D01*
X157933Y-75750D01*
X158040Y-76417D01*
X158360Y-76833D01*
X158733Y-77083D01*
X160067D01*
G01X158733D02*
X157933Y-79500D01*
G01X153000Y-81500D02*
X270500D01*
G01X153000Y-92500D02*
X270500D01*
G01X153000Y-70500D02*
X270500D01*
G01X153000Y-59500D02*
X270500D01*
G01X255750Y-53500D02*
X255083Y-54125D01*
X254333Y-54500D01*
X253667D01*
X253000Y-54125D01*
X252500Y-53500D01*
X252250Y-52625D01*
X252417Y-51750D01*
X252833Y-51000D01*
X253583Y-50500D01*
X254583Y-50250D01*
X255167Y-49750D01*
X255417Y-48875D01*
X255250Y-48000D01*
X254833Y-47375D01*
X254250Y-47000D01*
X253667D01*
X253083Y-47250D01*
X252583Y-47875D01*
G01X245833Y-54500D02*
X249167D01*
Y-47000D01*
X245833D01*
G01X247167Y-50625D02*
X249167D01*
G01X239167Y-47625D02*
X239667Y-47250D01*
X240250Y-47000D01*
X240917D01*
X241667Y-47375D01*
X242250Y-48000D01*
X242667Y-48750D01*
X243000Y-50000D01*
X243083Y-51125D01*
X242917Y-52250D01*
X242667Y-53000D01*
X242167Y-53750D01*
X241583Y-54250D01*
X241000Y-54500D01*
X240417D01*
X239833Y-54250D01*
X239333Y-53875D01*
X238917Y-53375D01*
G01X234500Y-54500D02*
X235167Y-54375D01*
X235750Y-53875D01*
X236250Y-53125D01*
X236583Y-52250D01*
X236750Y-51250D01*
Y-50250D01*
X236583Y-49250D01*
X236250Y-48375D01*
X235750Y-47625D01*
X235167Y-47125D01*
X234500Y-47000D01*
X233833Y-47125D01*
X233250Y-47625D01*
X232750Y-48375D01*
X232417Y-49250D01*
X232250Y-50250D01*
Y-51250D01*
X232417Y-52250D01*
X232750Y-53125D01*
X233250Y-53875D01*
X233833Y-54375D01*
X234500Y-54500D01*
G01X229917D02*
Y-47000D01*
X226083Y-54500D01*
Y-47000D01*
G01X223333Y-54500D02*
Y-47000D01*
X221667D01*
X221000Y-47375D01*
X220500Y-47875D01*
X220083Y-48625D01*
X219750Y-49500D01*
X219667Y-50750D01*
X219750Y-52000D01*
X220083Y-52875D01*
X220500Y-53625D01*
X221000Y-54125D01*
X221667Y-54500D01*
X223333D01*
G01X217083D02*
X215000Y-47000D01*
X212917Y-54500D01*
G01X213667Y-51875D02*
X216333D01*
G01X210167Y-54500D02*
Y-47000D01*
X208083D01*
X207417Y-47375D01*
X207000Y-47875D01*
X206833Y-48875D01*
X207000Y-49875D01*
X207500Y-50500D01*
X208083Y-50875D01*
X210167D01*
G01X208083D02*
X206833Y-54500D01*
G01X202000D02*
Y-51125D01*
X203667Y-47000D01*
G01X200333D02*
X202000Y-51125D01*
G01X196583Y-52000D02*
X194417D01*
G01X190750Y-53500D02*
X190083Y-54125D01*
X189333Y-54500D01*
X188667D01*
X188000Y-54125D01*
X187500Y-53500D01*
X187250Y-52625D01*
X187417Y-51750D01*
X187833Y-51000D01*
X188583Y-50500D01*
X189583Y-50250D01*
X190167Y-49750D01*
X190417Y-48875D01*
X190250Y-48000D01*
X189833Y-47375D01*
X189250Y-47000D01*
X188667D01*
X188083Y-47250D01*
X187583Y-47875D01*
G01X183500Y-47000D02*
X181500D01*
G01X182500D02*
Y-54500D01*
G01X183500D02*
X181500D01*
G01X177833D02*
Y-47000D01*
X176167D01*
X175500Y-47375D01*
X175000Y-47875D01*
X174583Y-48625D01*
X174250Y-49500D01*
X174167Y-50750D01*
X174250Y-52000D01*
X174583Y-52875D01*
X175000Y-53625D01*
X175500Y-54125D01*
X176167Y-54500D01*
X177833D01*
G01X167833D02*
X171167D01*
Y-47000D01*
X167833D01*
G01X169167Y-50625D02*
X171167D01*
G01X237913Y-86333D02*
X237593Y-85833D01*
X237220Y-85583D01*
X236793Y-85500D01*
X236260Y-85667D01*
X235887Y-86083D01*
X235780Y-86583D01*
X235833Y-87084D01*
X236047Y-87500D01*
X237113Y-88333D01*
X237593Y-88917D01*
X237913Y-89750D01*
X238020Y-90500D01*
X235780D01*
G01X232700Y-85500D02*
X233127Y-85667D01*
X233447Y-86083D01*
X233660Y-86583D01*
X233820Y-87250D01*
X233873Y-88000D01*
X233820Y-88750D01*
X233660Y-89417D01*
X233447Y-89917D01*
X233127Y-90333D01*
X232700Y-90500D01*
X232273Y-90333D01*
X231953Y-89917D01*
X231740Y-89417D01*
X231580Y-88750D01*
X231527Y-88000D01*
X231580Y-87250D01*
X231740Y-86583D01*
X231953Y-86083D01*
X232273Y-85667D01*
X232700Y-85500D01*
G01X228500Y-90500D02*
Y-85500D01*
X229140Y-86500D01*
G01Y-90500D02*
X227860D01*
G01X223660D02*
Y-85500D01*
X225633Y-89083D01*
X222967D01*
G01X220793Y-88833D02*
X219407D01*
G01X215900Y-85500D02*
X216327Y-85667D01*
X216647Y-86083D01*
X216860Y-86583D01*
X217020Y-87250D01*
X217073Y-88000D01*
X217020Y-88750D01*
X216860Y-89417D01*
X216647Y-89917D01*
X216327Y-90333D01*
X215900Y-90500D01*
X215473Y-90333D01*
X215153Y-89917D01*
X214940Y-89417D01*
X214780Y-88750D01*
X214727Y-88000D01*
X214780Y-87250D01*
X214940Y-86583D01*
X215153Y-86083D01*
X215473Y-85667D01*
X215900Y-85500D01*
G01X212713Y-86333D02*
X212393Y-85833D01*
X212020Y-85583D01*
X211593Y-85500D01*
X211060Y-85667D01*
X210687Y-86083D01*
X210580Y-86583D01*
X210633Y-87084D01*
X210847Y-87500D01*
X211913Y-88333D01*
X212393Y-88917D01*
X212713Y-89750D01*
X212820Y-90500D01*
X210580D01*
G01X208193Y-88833D02*
X206807D01*
G01X203300Y-90500D02*
Y-85500D01*
X203940Y-86500D01*
G01Y-90500D02*
X202660D01*
G01X200113Y-86333D02*
X199793Y-85833D01*
X199420Y-85583D01*
X198993Y-85500D01*
X198460Y-85667D01*
X198087Y-86083D01*
X197980Y-86583D01*
X198033Y-87084D01*
X198247Y-87500D01*
X199313Y-88333D01*
X199793Y-88917D01*
X200113Y-89750D01*
X200220Y-90500D01*
X197980D01*
G01X224967Y-68500D02*
Y-63500D01*
X223687D01*
X223260Y-63750D01*
X222940Y-64333D01*
X222833Y-65000D01*
X222940Y-65667D01*
X223207Y-66167D01*
X223687Y-66417D01*
X224967D01*
G01X219700Y-63500D02*
Y-68500D01*
G01X220927Y-63500D02*
X218473D01*
G01X216620Y-68500D02*
Y-63500D01*
G01X214380D02*
Y-68500D01*
G01Y-66000D02*
X216620D01*
G01X212633Y-63500D02*
X211300Y-68500D01*
X209967Y-63500D01*
G01X208273Y-68500D02*
Y-63500D01*
X207207D01*
X206780Y-63750D01*
X206460Y-64083D01*
X206193Y-64583D01*
X205980Y-65167D01*
X205927Y-66000D01*
X205980Y-66833D01*
X206193Y-67417D01*
X206460Y-67917D01*
X206780Y-68250D01*
X207207Y-68500D01*
X208273D01*
G01X201727Y-63917D02*
X202047Y-63667D01*
X202420Y-63500D01*
X202847D01*
X203327Y-63750D01*
X203700Y-64167D01*
X203967Y-64667D01*
X204180Y-65500D01*
X204233Y-66250D01*
X204127Y-67000D01*
X203967Y-67500D01*
X203647Y-68000D01*
X203273Y-68333D01*
X202900Y-68500D01*
X202527D01*
X202153Y-68333D01*
X201833Y-68083D01*
X201567Y-67750D01*
G01X218000Y-34000D02*
X218667Y-34250D01*
X219167Y-34875D01*
X219500Y-35625D01*
X219750Y-36625D01*
X219833Y-37750D01*
X219750Y-38875D01*
X219500Y-39875D01*
X219167Y-40625D01*
X218667Y-41250D01*
X218000Y-41500D01*
X217333Y-41250D01*
X216833Y-40625D01*
X216500Y-39875D01*
X216250Y-38875D01*
X216167Y-37750D01*
X216250Y-36625D01*
X216500Y-35625D01*
X216833Y-34875D01*
X217333Y-34250D01*
X218000Y-34000D01*
G01X213083Y-35250D02*
X212583Y-34500D01*
X212000Y-34125D01*
X211333Y-34000D01*
X210500Y-34250D01*
X209917Y-34875D01*
X209750Y-35625D01*
X209833Y-36375D01*
X210167Y-37000D01*
X211833Y-38250D01*
X212583Y-39125D01*
X213083Y-40375D01*
X213250Y-41500D01*
X209750D01*
G01X262727Y-74917D02*
X263047Y-74667D01*
X263420Y-74500D01*
X263847D01*
X264327Y-74750D01*
X264700Y-75167D01*
X264967Y-75667D01*
X265180Y-76500D01*
X265233Y-77250D01*
X265127Y-78000D01*
X264967Y-78500D01*
X264647Y-79000D01*
X264273Y-79333D01*
X263900Y-79500D01*
X263527D01*
X263153Y-79333D01*
X262833Y-79083D01*
X262567Y-78750D01*
G01X260820Y-79500D02*
Y-74500D01*
G01X258580D02*
Y-79500D01*
G01Y-77000D02*
X260820D01*
G01X254433Y-79500D02*
X256567D01*
Y-74500D01*
X254433D01*
G01X255287Y-76917D02*
X256567D01*
G01X250127Y-74917D02*
X250447Y-74667D01*
X250820Y-74500D01*
X251247D01*
X251727Y-74750D01*
X252100Y-75167D01*
X252367Y-75667D01*
X252580Y-76500D01*
X252633Y-77250D01*
X252527Y-78000D01*
X252367Y-78500D01*
X252047Y-79000D01*
X251673Y-79333D01*
X251300Y-79500D01*
X250927D01*
X250553Y-79333D01*
X250233Y-79083D01*
X249967Y-78750D01*
G01X248273Y-79500D02*
Y-74500D01*
G01X246247D02*
X248273Y-77583D01*
G01X245927Y-79500D02*
X247367Y-76167D01*
G01X241833Y-79500D02*
X243967D01*
Y-74500D01*
X241833D01*
G01X242687Y-76917D02*
X243967D01*
G01X239767Y-79500D02*
Y-74500D01*
X238433D01*
X238007Y-74750D01*
X237740Y-75083D01*
X237633Y-75750D01*
X237740Y-76417D01*
X238060Y-76833D01*
X238433Y-77083D01*
X239767D01*
G01X238433D02*
X237633Y-79500D01*
G01X234500Y-79667D02*
X234607Y-79583D01*
Y-79417D01*
X234500Y-79333D01*
X234393Y-79417D01*
Y-79583D01*
X234500Y-79667D01*
G01Y-77417D02*
X234607Y-77333D01*
Y-77167D01*
X234500Y-77083D01*
X234393Y-77167D01*
Y-77333D01*
X234500Y-77417D01*
G01X265073Y-68500D02*
Y-63500D01*
X264007D01*
X263580Y-63750D01*
X263260Y-64083D01*
X262993Y-64583D01*
X262780Y-65167D01*
X262727Y-66000D01*
X262780Y-66833D01*
X262993Y-67417D01*
X263260Y-67917D01*
X263580Y-68250D01*
X264007Y-68500D01*
X265073D01*
G01X258633D02*
X260767D01*
Y-63500D01*
X258633D01*
G01X259487Y-65917D02*
X260767D01*
G01X256620Y-67834D02*
X256193Y-68250D01*
X255713Y-68500D01*
X255287D01*
X254860Y-68250D01*
X254540Y-67834D01*
X254380Y-67250D01*
X254487Y-66667D01*
X254753Y-66167D01*
X255233Y-65833D01*
X255873Y-65667D01*
X256247Y-65333D01*
X256407Y-64750D01*
X256300Y-64167D01*
X256033Y-63750D01*
X255660Y-63500D01*
X255287D01*
X254913Y-63667D01*
X254593Y-64083D01*
G01X251940Y-63500D02*
X250660D01*
G01X251300D02*
Y-68500D01*
G01X251940D02*
X250660D01*
G01X246780Y-66000D02*
X245713D01*
Y-67500D01*
X246033Y-68000D01*
X246407Y-68333D01*
X246940Y-68500D01*
X247473Y-68333D01*
X247847Y-68000D01*
X248167Y-67500D01*
X248380Y-66917D01*
X248487Y-66250D01*
Y-65667D01*
X248380Y-65167D01*
X248167Y-64583D01*
X247847Y-64083D01*
X247527Y-63750D01*
X247100Y-63500D01*
X246727D01*
X246300Y-63667D01*
X245980Y-64000D01*
G01X244127Y-68500D02*
Y-63500D01*
X241673Y-68500D01*
Y-63500D01*
G01X237633Y-68500D02*
X239767D01*
Y-63500D01*
X237633D01*
G01X238487Y-65917D02*
X239767D01*
G01X235567Y-68500D02*
Y-63500D01*
X234233D01*
X233807Y-63750D01*
X233540Y-64083D01*
X233433Y-64750D01*
X233540Y-65417D01*
X233860Y-65833D01*
X234233Y-66083D01*
X235567D01*
G01X234233D02*
X233433Y-68500D01*
G01X230300Y-68667D02*
X230407Y-68583D01*
Y-68417D01*
X230300Y-68333D01*
X230193Y-68417D01*
Y-68583D01*
X230300Y-68667D01*
G01Y-66417D02*
X230407Y-66333D01*
Y-66167D01*
X230300Y-66083D01*
X230193Y-66167D01*
Y-66333D01*
X230300Y-66417D01*
G01X258667Y-34000D02*
Y-41500D01*
X255333D01*
G01X252583D02*
X250500Y-34000D01*
X248417Y-41500D01*
G01X249167Y-38875D02*
X251833D01*
G01X244000Y-41500D02*
Y-38125D01*
X245667Y-34000D01*
G01X242333D02*
X244000Y-38125D01*
G01X235833Y-41500D02*
X239167D01*
Y-34000D01*
X235833D01*
G01X237167Y-37625D02*
X239167D01*
G01X232667Y-41500D02*
Y-34000D01*
X230583D01*
X229917Y-34375D01*
X229500Y-34875D01*
X229333Y-35875D01*
X229500Y-36875D01*
X230000Y-37500D01*
X230583Y-37875D01*
X232667D01*
G01X230583D02*
X229333Y-41500D01*
G01X224500Y-41750D02*
X224667Y-41625D01*
Y-41375D01*
X224500Y-41250D01*
X224333Y-41375D01*
Y-41625D01*
X224500Y-41750D01*
G01Y-38375D02*
X224667Y-38250D01*
Y-38000D01*
X224500Y-37875D01*
X224333Y-38000D01*
Y-38250D01*
X224500Y-38375D01*
G01X264967Y-100500D02*
X264700Y-101000D01*
X264380Y-101333D01*
X264007Y-101500D01*
X263580Y-101333D01*
X263260Y-101000D01*
X262940Y-100500D01*
X262833Y-99833D01*
Y-96500D01*
G01X259700Y-101500D02*
X260127Y-101417D01*
X260500Y-101083D01*
X260820Y-100583D01*
X261033Y-100000D01*
X261140Y-99333D01*
Y-98667D01*
X261033Y-98000D01*
X260820Y-97417D01*
X260500Y-96917D01*
X260127Y-96583D01*
X259700Y-96500D01*
X259273Y-96583D01*
X258900Y-96917D01*
X258580Y-97417D01*
X258367Y-98000D01*
X258260Y-98667D01*
Y-99333D01*
X258367Y-100000D01*
X258580Y-100583D01*
X258900Y-101083D01*
X259273Y-101417D01*
X259700Y-101500D01*
G01X255073Y-98833D02*
X254860Y-98583D01*
X254700Y-98167D01*
X254593Y-97583D01*
X254700Y-97083D01*
X254913Y-96750D01*
X255287Y-96500D01*
X256727D01*
Y-101500D01*
X254967D01*
X254593Y-101167D01*
X254380Y-100667D01*
X254273Y-100083D01*
X254380Y-99500D01*
X254700Y-99000D01*
X255073Y-98833D01*
X256727D01*
G01X252367Y-103167D02*
X251300Y-96500D01*
G01X250233D02*
X251300Y-103167D01*
G01X252900Y-100667D02*
X249700D01*
G01Y-99000D02*
X252900D01*
G01X247100Y-101667D02*
X247207Y-101583D01*
Y-101417D01*
X247100Y-101333D01*
X246993Y-101417D01*
Y-101583D01*
X247100Y-101667D01*
G01Y-99417D02*
X247207Y-99333D01*
Y-99167D01*
X247100Y-99083D01*
X246993Y-99167D01*
Y-99333D01*
X247100Y-99417D01*
G01X264073Y-90500D02*
Y-85500D01*
X263007D01*
X262580Y-85750D01*
X262260Y-86083D01*
X261993Y-86583D01*
X261780Y-87167D01*
X261727Y-88000D01*
X261780Y-88833D01*
X261993Y-89417D01*
X262260Y-89917D01*
X262580Y-90250D01*
X263007Y-90500D01*
X264073D01*
G01X260033D02*
X258700Y-85500D01*
X257367Y-90500D01*
G01X257847Y-88750D02*
X259553D01*
G01X254500Y-85500D02*
Y-90500D01*
G01X255727Y-85500D02*
X253273D01*
G01X249233Y-90500D02*
X251367D01*
Y-85500D01*
X249233D01*
G01X250087Y-87917D02*
X251367D01*
G01X246100Y-90667D02*
X246207Y-90583D01*
Y-90417D01*
X246100Y-90333D01*
X245993Y-90417D01*
Y-90583D01*
X246100Y-90667D01*
G01Y-88417D02*
X246207Y-88333D01*
Y-88167D01*
X246100Y-88083D01*
X245993Y-88167D01*
Y-88333D01*
X246100Y-88417D01*
G01X270500Y-29500D02*
Y-104500D01*
G01X317395Y-77400D02*
G03I-355J0D01*
G01Y-75750D02*
G03I-355J0D01*
G01D02*
G03I-355J0D01*
G01Y-74090D02*
G03I-355J0D01*
G01D02*
G03I-355J0D01*
G01X315465Y-75750D02*
G03I-355J0D01*
G01D02*
G03I-355J0D01*
G01X314565Y-77400D02*
G03I-355J0D01*
G01X315185Y-75750D02*
G03I-355J0D01*
G01X315015Y-75730D02*
G03I-355J0D01*
G01X314855Y-75680D02*
G03I-355J0D01*
G01X314705Y-75610D02*
G03I-355J0D01*
G01X314575Y-75500D02*
G03I-355J0D01*
G01X314555Y-74320D02*
G03I-355J0D01*
G01X314685Y-74220D02*
G03I-355J0D01*
G01X314815Y-74150D02*
G03I-355J0D01*
G01X314965Y-74110D02*
G03I-355J0D01*
G01X315125Y-74090D02*
G03I-355J0D01*
G01X314465Y-75370D02*
G03I-355J0D01*
G01X314395Y-75220D02*
G03I-355J0D01*
G01X314345Y-75060D02*
G03I-355J0D01*
G01X314325Y-74890D02*
G03I-355J0D01*
G01X314345Y-74730D02*
G03I-355J0D01*
G01X314385Y-74580D02*
G03I-355J0D01*
G01X314455Y-74450D02*
G03I-355J0D01*
G01X318815Y-58040D02*
G03I-355J0D01*
G01X318895Y-58030D02*
G03I-355J0D01*
G01X317905Y-58270D02*
G03I-355J0D01*
G01X318385Y-58100D02*
G03I-355J0D01*
G01X318515Y-56440D02*
G03I-355J0D01*
G01X317395Y-61510D02*
G03I-355J0D01*
G01Y-60820D02*
G03I-355J0D01*
G01Y-60120D02*
G03I-355J0D01*
G01Y-59430D02*
G03I-355J0D01*
G01X317515Y-58730D02*
G03I-355J0D01*
G01X317395Y-59290D02*
G03I-355J0D01*
G01X317425Y-58990D02*
G03I-355J0D01*
G01X317525Y-58710D02*
G03I-355J0D01*
G01X317685Y-58470D02*
G03I-355J0D01*
G01X317215Y-56650D02*
G03I-355J0D01*
G01X317355Y-56610D02*
G03I-355J0D01*
G01X316575Y-56830D02*
G03I-355J0D01*
G01X315845Y-57190D02*
G03I-355J0D01*
G01D02*
G03I-355J0D01*
G01X315635Y-57350D02*
G03I-355J0D01*
G01X314485Y-58730D02*
G03I-355J0D01*
G01X314855Y-58040D02*
G03I-355J0D01*
G01X315195Y-57670D02*
G03I-355J0D01*
G01X314815Y-58080D02*
G03I-355J0D01*
G01X314535Y-58560D02*
G03I-355J0D01*
G01X314325Y-61510D02*
G03I-355J0D01*
G01Y-60820D02*
G03I-355J0D01*
G01Y-60120D02*
G03I-355J0D01*
G01X314345Y-59430D02*
G03I-355J0D01*
G01X314325Y-59640D02*
G03I-355J0D01*
G01X314375Y-59090D02*
G03I-355J0D01*
G01X317395Y-69600D02*
G03I-355J0D01*
G01X314325D02*
G03I-355J0D01*
G01X317395Y-69150D02*
G03I-355J0D01*
G01Y-68450D02*
G03I-355J0D01*
G01Y-67760D02*
G03I-355J0D01*
G01Y-67060D02*
G03I-355J0D01*
G01Y-66370D02*
G03I-355J0D01*
G01Y-65670D02*
G03I-355J0D01*
G01Y-64980D02*
G03I-355J0D01*
G01Y-64290D02*
G03I-355J0D01*
G01Y-63590D02*
G03I-355J0D01*
G01Y-62900D02*
G03I-355J0D01*
G01Y-62200D02*
G03I-355J0D01*
G01X314325Y-69150D02*
G03I-355J0D01*
G01Y-68450D02*
G03I-355J0D01*
G01Y-67760D02*
G03I-355J0D01*
G01Y-67060D02*
G03I-355J0D01*
G01Y-66370D02*
G03I-355J0D01*
G01Y-65670D02*
G03I-355J0D01*
G01Y-64980D02*
G03I-355J0D01*
G01Y-64290D02*
G03I-355J0D01*
G01Y-63590D02*
G03I-355J0D01*
G01Y-62900D02*
G03I-355J0D01*
G01Y-62200D02*
G03I-355J0D01*
G01X337645Y-76580D02*
G03I-355J0D01*
G01X337545Y-76780D02*
G03I-355J0D01*
G01X337705Y-76160D02*
G03I-355J0D01*
G01X337715D02*
G03I-355J0D01*
G01X337695Y-76380D02*
G03I-355J0D01*
G01X337705Y-74090D02*
G03I-355J0D01*
G01X337425Y-76960D02*
G03I-355J0D01*
G01X337275Y-77110D02*
G03I-355J0D01*
G01X337095Y-77230D02*
G03I-355J0D01*
G01X336895Y-77330D02*
G03I-355J0D01*
G01X336695Y-77380D02*
G03I-355J0D01*
G01X336475Y-77400D02*
G03I-355J0D01*
G01X335955D02*
G03I-355J0D01*
G01X335725Y-77380D02*
G03I-355J0D01*
G01X335505Y-77320D02*
G03I-355J0D01*
G01X335295Y-77220D02*
G03I-355J0D01*
G01X335115Y-77090D02*
G03I-355J0D01*
G01X334955Y-76930D02*
G03I-355J0D01*
G01X334825Y-76740D02*
G03I-355J0D01*
G01X334725Y-76540D02*
G03I-355J0D01*
G01X334665Y-76320D02*
G03I-355J0D01*
G01X334645Y-76090D02*
G03I-355J0D01*
G01X334635D02*
G03I-355J0D01*
G01Y-74090D02*
G03I-355J0D01*
G01X332495Y-76520D02*
G03I-355J0D01*
G01X332455Y-76700D02*
G03I-355J0D01*
G01X332515Y-76330D02*
G03I-355J0D01*
G01X332495Y-74950D02*
G03I-355J0D01*
G01X332515Y-75130D02*
G03I-355J0D01*
G01X332455Y-74770D02*
G03I-355J0D01*
G01X332375Y-76860D02*
G03I-355J0D01*
G01X332265Y-77020D02*
G03I-355J0D01*
G01X332135Y-77150D02*
G03I-355J0D01*
G01X331985Y-77260D02*
G03I-355J0D01*
G01X331815Y-77340D02*
G03I-355J0D01*
G01X331635Y-77380D02*
G03I-355J0D01*
G01X331655Y-74110D02*
G03I-355J0D01*
G01X331835Y-74150D02*
G03I-355J0D01*
G01X331995Y-74230D02*
G03I-355J0D01*
G01X332145Y-74330D02*
G03I-355J0D01*
G01X332275Y-74460D02*
G03I-355J0D01*
G01X332375Y-74610D02*
G03I-355J0D01*
G01X331445Y-77400D02*
G03I-355J0D01*
G01X331475Y-74090D02*
G03I-355J0D01*
G01X329675Y-77400D02*
G03I-355J0D01*
G01Y-74090D02*
G03I-355J0D01*
G01X322285Y-77150D02*
G03I-355J0D01*
G01X322445Y-77020D02*
G03I-355J0D01*
G01X322575Y-76860D02*
G03I-355J0D01*
G01X322685Y-76680D02*
G03I-355J0D01*
G01X322665Y-74730D02*
G03I-355J0D01*
G01X322535Y-74550D02*
G03I-355J0D01*
G01X322375Y-74390D02*
G03I-355J0D01*
G01X327785Y-74090D02*
G03I-355J0D01*
G01X326375Y-77400D02*
G03I-355J0D01*
G01Y-74090D02*
G03I-355J0D01*
G01D02*
G03I-355J0D01*
G01X324955D02*
G03I-355J0D01*
G01X322765Y-76490D02*
G03I-355J0D01*
G01X322805Y-76290D02*
G03I-355J0D01*
G01X322825Y-76090D02*
G03I-355J0D01*
G01Y-75380D02*
G03I-355J0D01*
G01X322835D02*
G03I-355J0D01*
G01X322815Y-75160D02*
G03I-355J0D01*
G01X322755Y-74940D02*
G03I-355J0D01*
G01X322185Y-74260D02*
G03I-355J0D01*
G01X321515Y-77400D02*
G03I-355J0D01*
G01X321715Y-77380D02*
G03I-355J0D01*
G01X321915Y-77340D02*
G03I-355J0D01*
G01X322105Y-77260D02*
G03I-355J0D01*
G01X321985Y-74170D02*
G03I-355J0D01*
G01X321765Y-74110D02*
G03I-355J0D01*
G01X321545Y-74090D02*
G03I-355J0D01*
G01X320595Y-77380D02*
G03I-355J0D01*
G01X320825Y-77400D02*
G03I-355J0D01*
G01X320805Y-74090D02*
G03I-355J0D01*
G01X320585Y-74110D02*
G03I-355J0D01*
G01X319695Y-76750D02*
G03I-355J0D01*
G01X319825Y-76940D02*
G03I-355J0D01*
G01X319985Y-77100D02*
G03I-355J0D01*
G01X320175Y-77230D02*
G03I-355J0D01*
G01X320385Y-77320D02*
G03I-355J0D01*
G01X319605Y-76540D02*
G03I-355J0D01*
G01X320365Y-74170D02*
G03I-355J0D01*
G01X320165Y-74260D02*
G03I-355J0D01*
G01X319985Y-74390D02*
G03I-355J0D01*
G01X319825Y-74550D02*
G03I-355J0D01*
G01X319695Y-74730D02*
G03I-355J0D01*
G01X319605Y-74930D02*
G03I-355J0D01*
G01X319525Y-76100D02*
G03I-355J0D01*
G01X319545Y-76330D02*
G03I-355J0D01*
G01X319525Y-76100D02*
G03I-355J0D01*
G01X319545Y-75150D02*
G03I-355J0D01*
G01X319525Y-75370D02*
G03I-355J0D01*
G01X336815Y-61510D02*
G03I-355J0D01*
G01X336875Y-61650D02*
G03I-355J0D01*
G01X336795Y-61460D02*
G03I-355J0D01*
G01X336765Y-61260D02*
G03I-355J0D01*
G01Y-60820D02*
G03I-355J0D01*
G01Y-59430D02*
G03I-355J0D01*
G01Y-60120D02*
G03I-355J0D01*
G01Y-58730D02*
G03I-355J0D01*
G01Y-58040D02*
G03I-355J0D01*
G01Y-57350D02*
G03I-355J0D01*
G01Y-56850D02*
G03I-355J0D01*
G01X333455Y-61510D02*
G03I-355J0D01*
G01Y-60820D02*
G03I-355J0D01*
G01Y-59430D02*
G03I-355J0D01*
G01Y-60120D02*
G03I-355J0D01*
G01Y-58730D02*
G03I-355J0D01*
G01Y-58040D02*
G03I-355J0D01*
G01Y-57350D02*
G03I-355J0D01*
G01Y-56850D02*
G03I-355J0D01*
G01X329915Y-61510D02*
G03I-355J0D01*
G01Y-60820D02*
G03I-355J0D01*
G01Y-60120D02*
G03I-355J0D01*
G01Y-58730D02*
G03I-355J0D01*
G01Y-59430D02*
G03I-355J0D01*
G01Y-58040D02*
G03I-355J0D01*
G01Y-57350D02*
G03I-355J0D01*
G01Y-56850D02*
G03I-355J0D01*
G01X336765Y-69600D02*
G03I-355J0D01*
G01X333455D02*
G03I-355J0D01*
G01X329915D02*
G03I-355J0D01*
G01X337595Y-63700D02*
G03I-355J0D01*
G01X337545Y-62040D02*
G03I-355J0D01*
G01X336765Y-69150D02*
G03I-355J0D01*
G01Y-68450D02*
G03I-355J0D01*
G01Y-67760D02*
G03I-355J0D01*
G01Y-66370D02*
G03I-355J0D01*
G01Y-67060D02*
G03I-355J0D01*
G01Y-65670D02*
G03I-355J0D01*
G01Y-64980D02*
G03I-355J0D01*
G01X336805Y-64290D02*
G03I-355J0D01*
G01X336765Y-64530D02*
G03I-355J0D01*
G01X336795Y-64310D02*
G03I-355J0D01*
G01X336875Y-64110D02*
G03I-355J0D01*
G01X337005Y-63940D02*
G03I-355J0D01*
G01X337175Y-63810D02*
G03I-355J0D01*
G01X337385Y-63730D02*
G03I-355J0D01*
G01X337345Y-62020D02*
G03I-355J0D01*
G01X337155Y-61940D02*
G03I-355J0D01*
G01X336995Y-61820D02*
G03I-355J0D01*
G01X333455Y-69150D02*
G03I-355J0D01*
G01Y-68450D02*
G03I-355J0D01*
G01Y-67060D02*
G03I-355J0D01*
G01Y-67760D02*
G03I-355J0D01*
G01Y-66370D02*
G03I-355J0D01*
G01Y-65670D02*
G03I-355J0D01*
G01Y-64980D02*
G03I-355J0D01*
G01Y-64290D02*
G03I-355J0D01*
G01Y-62900D02*
G03I-355J0D01*
G01Y-63590D02*
G03I-355J0D01*
G01Y-62200D02*
G03I-355J0D01*
G01X329915Y-69150D02*
G03I-355J0D01*
G01Y-68450D02*
G03I-355J0D01*
G01Y-67760D02*
G03I-355J0D01*
G01Y-66370D02*
G03I-355J0D01*
G01Y-67060D02*
G03I-355J0D01*
G01Y-65670D02*
G03I-355J0D01*
G01Y-64980D02*
G03I-355J0D01*
G01Y-64290D02*
G03I-355J0D01*
G01Y-62900D02*
G03I-355J0D01*
G01Y-63590D02*
G03I-355J0D01*
G01Y-62200D02*
G03I-355J0D01*
G01X328365Y-56650D02*
G03I-355J0D01*
G01X326845Y-61510D02*
G03I-355J0D01*
G01Y-60820D02*
G03I-355J0D01*
G01Y-59430D02*
G03I-355J0D01*
G01Y-60120D02*
G03I-355J0D01*
G01X326825Y-58730D02*
G03I-355J0D01*
G01X326815Y-58640D02*
G03I-355J0D01*
G01X326845Y-58860D02*
G03I-355J0D01*
G01X326425Y-58140D02*
G03I-355J0D01*
G01X326605Y-58270D02*
G03I-355J0D01*
G01X326735Y-58440D02*
G03I-355J0D01*
G01X326975Y-56470D02*
G03I-355J0D01*
G01X326095Y-58040D02*
G03I-355J0D01*
G01X326015Y-58030D02*
G03I-355J0D01*
G01X326235Y-58060D02*
G03I-355J0D01*
G01X324495Y-58040D02*
G03I-355J0D01*
G01X323885Y-58430D02*
G03I-355J0D01*
G01X324005Y-58260D02*
G03I-355J0D01*
G01X324175Y-58140D02*
G03I-355J0D01*
G01X324365Y-58060D02*
G03I-355J0D01*
G01X324575Y-58030D02*
G03I-355J0D01*
G01X324005Y-56380D02*
G03I-355J0D01*
G01X323775Y-61510D02*
G03I-355J0D01*
G01Y-60820D02*
G03I-355J0D01*
G01Y-60120D02*
G03I-355J0D01*
G01Y-59430D02*
G03I-355J0D01*
G01X323785Y-58730D02*
G03I-355J0D01*
G01X323775Y-58830D02*
G03I-355J0D01*
G01X323795Y-58620D02*
G03I-355J0D01*
G01X320465Y-61510D02*
G03I-355J0D01*
G01Y-60820D02*
G03I-355J0D01*
G01Y-60120D02*
G03I-355J0D01*
G01Y-59430D02*
G03I-355J0D01*
G01Y-58840D02*
G03I-355J0D01*
G01X320455Y-58730D02*
G03I-355J0D01*
G01X320435Y-58630D02*
G03I-355J0D01*
G01X319735Y-58040D02*
G03I-355J0D01*
G01X319655Y-58030D02*
G03I-355J0D01*
G01X319865Y-58060D02*
G03I-355J0D01*
G01X320055Y-58140D02*
G03I-355J0D01*
G01X320225Y-58270D02*
G03I-355J0D01*
G01X320355Y-58430D02*
G03I-355J0D01*
G01X319675Y-56380D02*
G03I-355J0D01*
G01X326845Y-69600D02*
G03I-355J0D01*
G01X323775D02*
G03I-355J0D01*
G01X326845Y-69150D02*
G03I-355J0D01*
G01Y-68450D02*
G03I-355J0D01*
G01Y-67060D02*
G03I-355J0D01*
G01Y-67760D02*
G03I-355J0D01*
G01Y-66370D02*
G03I-355J0D01*
G01Y-65670D02*
G03I-355J0D01*
G01Y-64980D02*
G03I-355J0D01*
G01Y-63590D02*
G03I-355J0D01*
G01Y-64290D02*
G03I-355J0D01*
G01Y-62900D02*
G03I-355J0D01*
G01Y-62200D02*
G03I-355J0D01*
G01X323775Y-69150D02*
G03I-355J0D01*
G01Y-68450D02*
G03I-355J0D01*
G01Y-67760D02*
G03I-355J0D01*
G01Y-67060D02*
G03I-355J0D01*
G01Y-66370D02*
G03I-355J0D01*
G01Y-65670D02*
G03I-355J0D01*
G01Y-64980D02*
G03I-355J0D01*
G01Y-64290D02*
G03I-355J0D01*
G01Y-63590D02*
G03I-355J0D01*
G01Y-62900D02*
G03I-355J0D01*
G01Y-62200D02*
G03I-355J0D01*
G01X320465Y-69600D02*
G03I-355J0D01*
G01Y-69150D02*
G03I-355J0D01*
G01Y-68450D02*
G03I-355J0D01*
G01Y-67760D02*
G03I-355J0D01*
G01Y-67060D02*
G03I-355J0D01*
G01Y-66370D02*
G03I-355J0D01*
G01Y-65670D02*
G03I-355J0D01*
G01Y-64980D02*
G03I-355J0D01*
G01Y-64290D02*
G03I-355J0D01*
G01Y-63590D02*
G03I-355J0D01*
G01Y-62900D02*
G03I-355J0D01*
G01Y-62200D02*
G03I-355J0D01*
G01X356605Y-77400D02*
G03I-355J0D01*
G01Y-74090D02*
G03I-355J0D01*
G01X353845Y-77230D02*
G03I-355J0D01*
G01X354025Y-77100D02*
G03I-355J0D01*
G01X354185Y-76940D02*
G03I-355J0D01*
G01X354315Y-76750D02*
G03I-355J0D01*
G01X354405Y-76550D02*
G03I-355J0D01*
G01X354465Y-76330D02*
G03I-355J0D01*
G01X354485Y-76110D02*
G03I-355J0D01*
G01Y-75360D02*
G03I-355J0D01*
G01X354465Y-75140D02*
G03I-355J0D01*
G01X354405Y-74930D02*
G03I-355J0D01*
G01X354315Y-74720D02*
G03I-355J0D01*
G01X354185Y-74540D02*
G03I-355J0D01*
G01X354035Y-74390D02*
G03I-355J0D01*
G01X353845Y-74260D02*
G03I-355J0D01*
G01X353195Y-77400D02*
G03I-355J0D01*
G01X353415Y-77380D02*
G03I-355J0D01*
G01X353635Y-77320D02*
G03I-355J0D01*
G01X353645Y-74170D02*
G03I-355J0D01*
G01X353435Y-74110D02*
G03I-355J0D01*
G01X353215Y-74090D02*
G03I-355J0D01*
G01X352085Y-77340D02*
G03I-355J0D01*
G01X352285Y-77380D02*
G03I-355J0D01*
G01X352495Y-77400D02*
G03I-355J0D01*
G01X352475Y-74090D02*
G03I-355J0D01*
G01X352245Y-74110D02*
G03I-355J0D01*
G01X352035Y-74170D02*
G03I-355J0D01*
G01X351315Y-76680D02*
G03I-355J0D01*
G01X351425Y-76860D02*
G03I-355J0D01*
G01X351565Y-77010D02*
G03I-355J0D01*
G01X351715Y-77150D02*
G03I-355J0D01*
G01X351895Y-77260D02*
G03I-355J0D01*
G01X351175Y-76080D02*
G03I-355J0D01*
G01X351195Y-76290D02*
G03I-355J0D01*
G01X351235Y-76490D02*
G03I-355J0D01*
G01X351175Y-76080D02*
G03I-355J0D01*
G01X351345Y-74740D02*
G03I-355J0D01*
G01X351255Y-74950D02*
G03I-355J0D01*
G01X351195Y-75160D02*
G03I-355J0D01*
G01X351175Y-75390D02*
G03I-355J0D01*
G01X351825Y-74260D02*
G03I-355J0D01*
G01X351635Y-74390D02*
G03I-355J0D01*
G01X351475Y-74550D02*
G03I-355J0D01*
G01X348815Y-77400D02*
G03I-355J0D01*
G01Y-74090D02*
G03I-355J0D01*
G01X348335D02*
G03I-355J0D01*
G01X346055Y-77400D02*
G03I-355J0D01*
G01X345505D02*
G03I-355J0D01*
G01Y-74090D02*
G03I-355J0D01*
G01X343145Y-77400D02*
G03I-355J0D01*
G01Y-74090D02*
G03I-355J0D01*
G01X341385Y-77400D02*
G03I-355J0D01*
G01X341185Y-77380D02*
G03I-355J0D01*
G01X340985Y-77340D02*
G03I-355J0D01*
G01X340925Y-74170D02*
G03I-355J0D01*
G01X341145Y-74110D02*
G03I-355J0D01*
G01X341365Y-74090D02*
G03I-355J0D01*
G01X340795Y-77260D02*
G03I-355J0D01*
G01X340615Y-77150D02*
G03I-355J0D01*
G01X340455Y-77020D02*
G03I-355J0D01*
G01X340325Y-76860D02*
G03I-355J0D01*
G01X340215Y-76680D02*
G03I-355J0D01*
G01X340135Y-76490D02*
G03I-355J0D01*
G01X340095Y-76290D02*
G03I-355J0D01*
G01X340075Y-76090D02*
G03I-355J0D01*
G01Y-75380D02*
G03I-355J0D01*
G01X340095Y-75160D02*
G03I-355J0D01*
G01X340155Y-74940D02*
G03I-355J0D01*
G01X340245Y-74730D02*
G03I-355J0D01*
G01X340075Y-75380D02*
G03I-355J0D01*
G01X340375Y-74550D02*
G03I-355J0D01*
G01X340535Y-74390D02*
G03I-355J0D01*
G01X340715Y-74260D02*
G03I-355J0D01*
G01X355715Y-57820D02*
G03I-355J0D01*
G01X356255Y-57790D02*
G03I-355J0D01*
G01X355585Y-56380D02*
G03I-355J0D01*
G01X355005Y-58040D02*
G03I-355J0D01*
G01X354715Y-58180D02*
G03I-355J0D01*
G01X355195Y-57950D02*
G03I-355J0D01*
G01X354725Y-56410D02*
G03I-355J0D01*
G01X355625Y-69600D02*
G03I-355J0D01*
G01X354715Y-69570D02*
G03I-355J0D01*
G01X356255Y-68190D02*
G03I-355J0D01*
G01X355655Y-68150D02*
G03I-355J0D01*
G01X355085Y-67990D02*
G03I-355J0D01*
G01X354035Y-58730D02*
G03I-355J0D01*
G01X353955Y-58800D02*
G03I-355J0D01*
G01X354285Y-58500D02*
G03I-355J0D01*
G01X353875Y-56570D02*
G03I-355J0D01*
G01X353535Y-61510D02*
G03I-355J0D01*
G01Y-60820D02*
G03I-355J0D01*
G01X353625Y-59430D02*
G03I-355J0D01*
G01X353535Y-60120D02*
G03I-355J0D01*
G01Y-60040D02*
G03I-355J0D01*
G01X353575Y-59590D02*
G03I-355J0D01*
G01X353715Y-59170D02*
G03I-355J0D01*
G01X353065Y-56850D02*
G03I-355J0D01*
G01X353635Y-56650D02*
G03I-355J0D01*
G01X352065Y-57350D02*
G03I-355J0D01*
G01X352435Y-57120D02*
G03I-355J0D01*
G01X351225Y-58040D02*
G03I-355J0D01*
G01X351335Y-57910D02*
G03I-355J0D01*
G01X351855Y-57470D02*
G03I-355J0D01*
G01X350465Y-61510D02*
G03I-355J0D01*
G01Y-60820D02*
G03I-355J0D01*
G01X350515Y-59430D02*
G03I-355J0D01*
G01X350465Y-60120D02*
G03I-355J0D01*
G01X350515Y-59450D02*
G03I-355J0D01*
G01X350465Y-60040D02*
G03I-355J0D01*
G01X350755Y-58730D02*
G03I-355J0D01*
G01X350675Y-58880D02*
G03I-355J0D01*
G01X350955Y-58360D02*
G03I-355J0D01*
G01X347155Y-61510D02*
G03I-355J0D01*
G01Y-60820D02*
G03I-355J0D01*
G01Y-60120D02*
G03I-355J0D01*
G01Y-59430D02*
G03I-355J0D01*
G01Y-58730D02*
G03I-355J0D01*
G01Y-58040D02*
G03I-355J0D01*
G01Y-56850D02*
G03I-355J0D01*
G01Y-57350D02*
G03I-355J0D01*
G01X343795Y-61510D02*
G03I-355J0D01*
G01X343855Y-61240D02*
G03I-355J0D01*
G01X343825Y-61450D02*
G03I-355J0D01*
G01X343745Y-61640D02*
G03I-355J0D01*
G01X343855Y-60820D02*
G03I-355J0D01*
G01Y-60120D02*
G03I-355J0D01*
G01Y-59430D02*
G03I-355J0D01*
G01Y-58730D02*
G03I-355J0D01*
G01Y-58040D02*
G03I-355J0D01*
G01Y-56850D02*
G03I-355J0D01*
G01D02*
G03I-355J0D01*
G01Y-57350D02*
G03I-355J0D01*
G01X353815Y-69430D02*
G03I-355J0D01*
G01X354615Y-67760D02*
G03I-355J0D01*
G01X353915Y-67060D02*
G03I-355J0D01*
G01X354555Y-67730D02*
G03I-355J0D01*
G01X354085Y-67360D02*
G03I-355J0D01*
G01X353785Y-66850D02*
G03I-355J0D01*
G01X352895Y-69150D02*
G03I-355J0D01*
G01X352945Y-69170D02*
G03I-355J0D01*
G01X353625Y-66370D02*
G03I-355J0D01*
G01X353595Y-66290D02*
G03I-355J0D01*
G01X353535Y-65670D02*
G03I-355J0D01*
G01Y-65710D02*
G03I-355J0D01*
G01Y-64980D02*
G03I-355J0D01*
G01Y-63590D02*
G03I-355J0D01*
G01Y-64290D02*
G03I-355J0D01*
G01Y-62900D02*
G03I-355J0D01*
G01Y-62200D02*
G03I-355J0D01*
G01X352365Y-68900D02*
G03I-355J0D01*
G01X351735Y-68450D02*
G03I-355J0D01*
G01X351375Y-68110D02*
G03I-355J0D01*
G01X351835Y-68550D02*
G03I-355J0D01*
G01X350635Y-67060D02*
G03I-355J0D01*
G01X351025Y-67760D02*
G03I-355J0D01*
G01X350695Y-67250D02*
G03I-355J0D01*
G01X350985Y-67720D02*
G03I-355J0D01*
G01X350485Y-66370D02*
G03I-355J0D01*
G01X350515Y-66730D02*
G03I-355J0D01*
G01X350465Y-65670D02*
G03I-355J0D01*
G01Y-66180D02*
G03I-355J0D01*
G01Y-64980D02*
G03I-355J0D01*
G01Y-64290D02*
G03I-355J0D01*
G01Y-62900D02*
G03I-355J0D01*
G01Y-63590D02*
G03I-355J0D01*
G01Y-62200D02*
G03I-355J0D01*
G01X347155Y-69600D02*
G03I-355J0D01*
G01X343855D02*
G03I-355J0D01*
G01X347155Y-69150D02*
G03I-355J0D01*
G01Y-68450D02*
G03I-355J0D01*
G01Y-67760D02*
G03I-355J0D01*
G01Y-67060D02*
G03I-355J0D01*
G01Y-66370D02*
G03I-355J0D01*
G01Y-65670D02*
G03I-355J0D01*
G01Y-64980D02*
G03I-355J0D01*
G01Y-64290D02*
G03I-355J0D01*
G01Y-62900D02*
G03I-355J0D01*
G01Y-63590D02*
G03I-355J0D01*
G01Y-62200D02*
G03I-355J0D01*
G01X343855Y-69150D02*
G03I-355J0D01*
G01Y-68450D02*
G03I-355J0D01*
G01Y-67760D02*
G03I-355J0D01*
G01Y-67060D02*
G03I-355J0D01*
G01Y-66370D02*
G03I-355J0D01*
G01Y-65670D02*
G03I-355J0D01*
G01Y-64980D02*
G03I-355J0D01*
G01Y-64480D02*
G03I-355J0D01*
G01X343825Y-64290D02*
G03I-355J0D01*
G01X343625Y-63930D02*
G03I-355J0D01*
G01X343745Y-64090D02*
G03I-355J0D01*
G01X343825Y-64280D02*
G03I-355J0D01*
G01X343615Y-61810D02*
G03I-355J0D01*
G01X343075Y-63700D02*
G03I-355J0D01*
G01X343275Y-63720D02*
G03I-355J0D01*
G01X343465Y-63800D02*
G03I-355J0D01*
G01X343445Y-61940D02*
G03I-355J0D01*
G01X343255Y-62020D02*
G03I-355J0D01*
G01X343045Y-62040D02*
G03I-355J0D01*
G01X373145Y-77340D02*
G03I-355J0D01*
G01X372965Y-77380D02*
G03I-355J0D01*
G01X372785Y-77400D02*
G03I-355J0D01*
G01X373025Y-74110D02*
G03I-355J0D01*
G01X372825Y-74090D02*
G03I-355J0D01*
G01X376835Y-77400D02*
G03I-355J0D01*
G01X376775Y-75740D02*
G03I-355J0D01*
G01Y-75750D02*
G03I-355J0D01*
G01X376665Y-77380D02*
G03I-355J0D01*
G01X376505Y-77330D02*
G03I-355J0D01*
G01X376355Y-77260D02*
G03I-355J0D01*
G01X376225Y-77150D02*
G03I-355J0D01*
G01X376115Y-77020D02*
G03I-355J0D01*
G01X376045Y-76870D02*
G03I-355J0D01*
G01X375995Y-76710D02*
G03I-355J0D01*
G01X375975Y-76540D02*
G03I-355J0D01*
G01X375995Y-76380D02*
G03I-355J0D01*
G01X376035Y-76230D02*
G03I-355J0D01*
G01X376105Y-76100D02*
G03I-355J0D01*
G01X376205Y-75970D02*
G03I-355J0D01*
G01X376335Y-75870D02*
G03I-355J0D01*
G01X376465Y-75800D02*
G03I-355J0D01*
G01X376615Y-75760D02*
G03I-355J0D01*
G01X375975Y-74090D02*
G03I-355J0D01*
G01X373825Y-76520D02*
G03I-355J0D01*
G01X373785Y-76700D02*
G03I-355J0D01*
G01X373705Y-76870D02*
G03I-355J0D01*
G01X373595Y-77020D02*
G03I-355J0D01*
G01X373465Y-77150D02*
G03I-355J0D01*
G01X373855Y-75750D02*
G03I-355J0D01*
G01D02*
G03I-355J0D01*
G01Y-76340D02*
G03I-355J0D01*
G01X373845D02*
G03I-355J0D01*
G01X373855Y-75110D02*
G03I-355J0D01*
G01X373845D02*
G03I-355J0D01*
G01X373825Y-74910D02*
G03I-355J0D01*
G01X373765Y-74720D02*
G03I-355J0D01*
G01X373675Y-74540D02*
G03I-355J0D01*
G01X373545Y-74390D02*
G03I-355J0D01*
G01X373395Y-74260D02*
G03I-355J0D01*
G01X373315Y-77260D02*
G03I-355J0D01*
G01X373215Y-74170D02*
G03I-355J0D01*
G01X371015Y-77400D02*
G03I-355J0D01*
G01Y-75750D02*
G03I-355J0D01*
G01Y-74090D02*
G03I-355J0D01*
G01X368655Y-77400D02*
G03I-355J0D01*
G01Y-74090D02*
G03I-355J0D01*
G01X368105D02*
G03I-355J0D01*
G01X366565Y-77400D02*
G03I-355J0D01*
G01X365155Y-74090D02*
G03I-355J0D01*
G01X364635Y-77400D02*
G03I-355J0D01*
G01Y-74090D02*
G03I-355J0D01*
G01X362045Y-77400D02*
G03I-355J0D01*
G01Y-74090D02*
G03I-355J0D01*
G01X359425Y-76500D02*
G03I-355J0D01*
G01X359375Y-76680D02*
G03I-355J0D01*
G01X359295Y-76850D02*
G03I-355J0D01*
G01X359185Y-77010D02*
G03I-355J0D01*
G01X359055Y-77140D02*
G03I-355J0D01*
G01X358905Y-77250D02*
G03I-355J0D01*
G01X359445Y-76310D02*
G03I-355J0D01*
G01X359365Y-74760D02*
G03I-355J0D01*
G01X359425Y-74970D02*
G03I-355J0D01*
G01X359445Y-75180D02*
G03I-355J0D01*
G01X358965Y-74270D02*
G03I-355J0D01*
G01X359125Y-74410D02*
G03I-355J0D01*
G01X359265Y-74570D02*
G03I-355J0D01*
G01X358725Y-77330D02*
G03I-355J0D01*
G01X358545Y-77380D02*
G03I-355J0D01*
G01X358355Y-77400D02*
G03I-355J0D01*
G01Y-74090D02*
G03I-355J0D01*
G01X358565Y-74110D02*
G03I-355J0D01*
G01X358775Y-74170D02*
G03I-355J0D01*
G01X375975Y-61510D02*
G03I-355J0D01*
G01Y-60820D02*
G03I-355J0D01*
G01Y-60120D02*
G03I-355J0D01*
G01Y-58730D02*
G03I-355J0D01*
G01Y-59430D02*
G03I-355J0D01*
G01Y-58570D02*
G03I-355J0D01*
G01X375955Y-58370D02*
G03I-355J0D01*
G01X375765Y-58040D02*
G03I-355J0D01*
G01X375875Y-58180D02*
G03I-355J0D01*
G01X375755Y-58020D02*
G03I-355J0D01*
G01X375585Y-57900D02*
G03I-355J0D01*
G01X375405Y-57820D02*
G03I-355J0D01*
G01X375205Y-57790D02*
G03I-355J0D01*
G01X374795Y-56380D02*
G03I-355J0D01*
G01X372355Y-57790D02*
G03I-355J0D01*
G01X371665Y-57820D02*
G03I-355J0D01*
G01X371765Y-56380D02*
G03I-355J0D01*
G01X370855Y-58040D02*
G03I-355J0D01*
G01X370985Y-57980D02*
G03I-355J0D01*
G01X370035Y-58580D02*
G03I-355J0D01*
G01X369935Y-58730D02*
G03I-355J0D01*
G01X370345Y-58270D02*
G03I-355J0D01*
G01X370095Y-56500D02*
G03I-355J0D01*
G01X369695Y-61510D02*
G03I-355J0D01*
G01X369645Y-61340D02*
G03I-355J0D01*
G01X369595Y-60820D02*
G03I-355J0D01*
G01Y-60900D02*
G03I-355J0D01*
G01Y-60120D02*
G03I-355J0D01*
G01X369645Y-59430D02*
G03I-355J0D01*
G01X369655Y-59360D02*
G03I-355J0D01*
G01X369595Y-59800D02*
G03I-355J0D01*
G01X369805Y-58950D02*
G03I-355J0D01*
G01X369375Y-56650D02*
G03I-355J0D01*
G01X368455Y-56850D02*
G03I-355J0D01*
G01X367665Y-57350D02*
G03I-355J0D01*
G01X367415Y-57550D02*
G03I-355J0D01*
G01X367905Y-57150D02*
G03I-355J0D01*
G01X366535Y-61510D02*
G03I-355J0D01*
G01X366525Y-61450D02*
G03I-355J0D01*
G01Y-60820D02*
G03I-355J0D01*
G01Y-60120D02*
G03I-355J0D01*
G01Y-59430D02*
G03I-355J0D01*
G01X366625Y-58730D02*
G03I-355J0D01*
G01X366525Y-59450D02*
G03I-355J0D01*
G01X366545Y-59070D02*
G03I-355J0D01*
G01X366635Y-58690D02*
G03I-355J0D01*
G01X366995Y-58040D02*
G03I-355J0D01*
G01X366785Y-58340D02*
G03I-355J0D01*
G01X367005Y-58030D02*
G03I-355J0D01*
G01X363455Y-61510D02*
G03I-355J0D01*
G01Y-60820D02*
G03I-355J0D01*
G01Y-60120D02*
G03I-355J0D01*
G01X363425Y-59430D02*
G03I-355J0D01*
G01X363455Y-59760D02*
G03I-355J0D01*
G01X363235Y-58730D02*
G03I-355J0D01*
G01X363285Y-58820D02*
G03I-355J0D01*
G01X363415Y-59280D02*
G03I-355J0D01*
G01X363285Y-58820D02*
G03I-355J0D01*
G01X362775Y-58040D02*
G03I-355J0D01*
G01X363055Y-58400D02*
G03I-355J0D01*
G01X362765Y-58020D02*
G03I-355J0D01*
G01X362395Y-57710D02*
G03I-355J0D01*
G01X361945Y-57350D02*
G03I-355J0D01*
G01X361765Y-57200D02*
G03I-355J0D01*
G01X361055Y-56810D02*
G03I-355J0D01*
G01X360585Y-56650D02*
G03I-355J0D01*
G01X360385Y-61510D02*
G03I-355J0D01*
G01Y-60820D02*
G03I-355J0D01*
G01Y-60120D02*
G03I-355J0D01*
G01X360275Y-59430D02*
G03I-355J0D01*
G01X360345Y-59670D02*
G03I-355J0D01*
G01X360385Y-60080D02*
G03I-355J0D01*
G01X360025Y-58930D02*
G03I-355J0D01*
G01X360225Y-59280D02*
G03I-355J0D01*
G01X359855Y-58730D02*
G03I-355J0D01*
G01X359755Y-58620D02*
G03I-355J0D01*
G01D02*
G03I-355J0D01*
G01X360295Y-56550D02*
G03I-355J0D01*
G01X358925Y-58040D02*
G03I-355J0D01*
G01X359325Y-58250D02*
G03I-355J0D01*
G01X359495Y-56410D02*
G03I-355J0D01*
G01X358275Y-57830D02*
G03I-355J0D01*
G01X358825Y-57980D02*
G03I-355J0D01*
G01X358695Y-56380D02*
G03I-355J0D01*
G01X357705Y-57790D02*
G03I-355J0D01*
G01X375975Y-69600D02*
G03I-355J0D01*
G01X372765Y-65670D02*
G03I-355J0D01*
G01X375975Y-69150D02*
G03I-355J0D01*
G01Y-68450D02*
G03I-355J0D01*
G01Y-67760D02*
G03I-355J0D01*
G01Y-66370D02*
G03I-355J0D01*
G01Y-67060D02*
G03I-355J0D01*
G01Y-65670D02*
G03I-355J0D01*
G01Y-64980D02*
G03I-355J0D01*
G01Y-64290D02*
G03I-355J0D01*
G01Y-62900D02*
G03I-355J0D01*
G01Y-63590D02*
G03I-355J0D01*
G01Y-62200D02*
G03I-355J0D01*
G01X373365Y-64980D02*
G03I-355J0D01*
G01X373855Y-64290D02*
G03I-355J0D01*
G01Y-63590D02*
G03I-355J0D01*
G01Y-64410D02*
G03I-355J0D01*
G01Y-62990D02*
G03I-355J0D01*
G01X369405Y-69600D02*
G03I-355J0D01*
G01X365745D02*
G03I-355J0D01*
G01X360425Y-69370D02*
G03I-355J0D01*
G01X359405Y-69540D02*
G03I-355J0D01*
G01X358375Y-69600D02*
G03I-355J0D01*
G01X372175Y-66370D02*
G03I-355J0D01*
G01X372075Y-62990D02*
G03I-355J0D01*
G01X370985Y-67760D02*
G03I-355J0D01*
G01X371575Y-67060D02*
G03I-355J0D01*
G01X371305Y-62900D02*
G03I-355J0D01*
G01X370935Y-62800D02*
G03I-355J0D01*
G01X371495Y-62950D02*
G03I-355J0D01*
G01X370385Y-68450D02*
G03I-355J0D01*
G01X369955Y-64980D02*
G03I-355J0D01*
G01X370195Y-64720D02*
G03I-355J0D01*
G01Y-64290D02*
G03I-355J0D01*
G01Y-64210D02*
G03I-355J0D01*
G01X370005Y-62200D02*
G03I-355J0D01*
G01X369955Y-62160D02*
G03I-355J0D01*
G01X370415Y-62530D02*
G03I-355J0D01*
G01X369795Y-69150D02*
G03I-355J0D01*
G01X369325Y-65670D02*
G03I-355J0D01*
G01X369495Y-64200D02*
G03I-355J0D01*
G01X369765Y-61760D02*
G03I-355J0D01*
G01X368685Y-66370D02*
G03I-355J0D01*
G01X368815Y-64080D02*
G03I-355J0D01*
G01X367425Y-67760D02*
G03I-355J0D01*
G01X368055Y-67060D02*
G03I-355J0D01*
G01X367715Y-63590D02*
G03I-355J0D01*
G01X368155Y-63840D02*
G03I-355J0D01*
G01X367555Y-63500D02*
G03I-355J0D01*
G01X366795Y-68450D02*
G03I-355J0D01*
G01X366965Y-62900D02*
G03I-355J0D01*
G01X367195Y-63190D02*
G03I-355J0D01*
G01X366905Y-62810D02*
G03I-355J0D01*
G01X366635Y-62200D02*
G03I-355J0D01*
G01X366685Y-62390D02*
G03I-355J0D01*
G01X366565Y-61930D02*
G03I-355J0D01*
G01X366155Y-69150D02*
G03I-355J0D01*
G01X363385Y-67060D02*
G03I-355J0D01*
G01X363285Y-67410D02*
G03I-355J0D01*
G01X363455Y-66370D02*
G03I-355J0D01*
G01X363425Y-66940D02*
G03I-355J0D01*
G01X363455Y-66450D02*
G03I-355J0D01*
G01Y-65670D02*
G03I-355J0D01*
G01Y-64980D02*
G03I-355J0D01*
G01Y-64290D02*
G03I-355J0D01*
G01Y-63590D02*
G03I-355J0D01*
G01Y-62900D02*
G03I-355J0D01*
G01Y-62200D02*
G03I-355J0D01*
G01Y-62520D02*
G03I-355J0D01*
G01D02*
G03I-355J0D01*
G01D02*
G03I-355J0D01*
G01X362425Y-68450D02*
G03I-355J0D01*
G01X362355Y-68500D02*
G03I-355J0D01*
G01X362745Y-68210D02*
G03I-355J0D01*
G01X363105Y-67760D02*
G03I-355J0D01*
G01X363055Y-67840D02*
G03I-355J0D01*
G01X361755Y-68880D02*
G03I-355J0D01*
G01X361165Y-69150D02*
G03I-355J0D01*
G01X361105Y-69170D02*
G03I-355J0D01*
G01X359965Y-67060D02*
G03I-355J0D01*
G01X359945Y-67090D02*
G03I-355J0D01*
G01X360295Y-66370D02*
G03I-355J0D01*
G01X360355Y-66200D02*
G03I-355J0D01*
G01X360205Y-66670D02*
G03I-355J0D01*
G01X360385Y-65670D02*
G03I-355J0D01*
G01Y-65710D02*
G03I-355J0D01*
G01Y-64980D02*
G03I-355J0D01*
G01Y-64290D02*
G03I-355J0D01*
G01Y-63590D02*
G03I-355J0D01*
G01Y-62900D02*
G03I-355J0D01*
G01Y-62200D02*
G03I-355J0D01*
G01Y-62520D02*
G03I-355J0D01*
G01D02*
G03I-355J0D01*
G01D02*
G03I-355J0D01*
G01X359225Y-67760D02*
G03I-355J0D01*
G01X359595Y-67440D02*
G03I-355J0D01*
G01X359235Y-67760D02*
G03I-355J0D01*
G01X358815Y-67990D02*
G03I-355J0D01*
G01X358345Y-68140D02*
G03I-355J0D01*
G01X357865Y-68190D02*
G03I-355J0D01*
G01X379285Y-77400D02*
G03I-355J0D01*
G01X378565Y-75720D02*
G03I-355J0D01*
G01X378735Y-75670D02*
G03I-355J0D01*
G01X378885Y-75590D02*
G03I-355J0D01*
G01X379025Y-75480D02*
G03I-355J0D01*
G01X379135Y-75340D02*
G03I-355J0D01*
G01X379215Y-75190D02*
G03I-355J0D01*
G01X379265Y-75020D02*
G03I-355J0D01*
G01X379285Y-74850D02*
G03I-355J0D01*
G01X379265Y-74680D02*
G03I-355J0D01*
G01X379205Y-74520D02*
G03I-355J0D01*
G01X379115Y-74380D02*
G03I-355J0D01*
G01X378995Y-74260D02*
G03I-355J0D01*
G01X378855Y-74170D02*
G03I-355J0D01*
G01X378695Y-74110D02*
G03I-355J0D01*
G01X378525Y-74090D02*
G03I-355J0D01*
G01X378395Y-75750D02*
G03I-355J0D01*
G01Y-75740D02*
G03I-355J0D01*
G01X379285Y-61510D02*
G03I-355J0D01*
G01Y-60820D02*
G03I-355J0D01*
G01Y-59430D02*
G03I-355J0D01*
G01Y-60120D02*
G03I-355J0D01*
G01Y-58730D02*
G03I-355J0D01*
G01Y-58040D02*
G03I-355J0D01*
G01Y-57350D02*
G03I-355J0D01*
G01Y-56850D02*
G03I-355J0D01*
G01D02*
G03I-355J0D01*
G01X377945Y-56650D02*
G03I-355J0D01*
G01X377045Y-56520D02*
G03I-355J0D01*
G01X379285Y-69600D02*
G03I-355J0D01*
G01Y-69150D02*
G03I-355J0D01*
G01Y-68450D02*
G03I-355J0D01*
G01Y-67060D02*
G03I-355J0D01*
G01Y-67760D02*
G03I-355J0D01*
G01Y-66370D02*
G03I-355J0D01*
G01Y-65670D02*
G03I-355J0D01*
G01Y-64980D02*
G03I-355J0D01*
G01Y-63590D02*
G03I-355J0D01*
G01Y-64290D02*
G03I-355J0D01*
G01Y-62900D02*
G03I-355J0D01*
G01Y-62200D02*
G03I-355J0D01*
M02*
